<svg width="62" height="62" viewBox="0 0 62 62" fill="none" xmlns="http://www.w3.org/2000/svg">
<path d="M5.57627 1H9.64407M56.4237 1H52.8644M9.64407 1L12.9323 7.92874C13.0979 8.27763 13.4495 8.5 13.8357 8.5H19.3051M9.64407 1H52.8644M52.8644 1L49.0804 7.97676C48.9055 8.29919 48.5682 8.5 48.2014 8.5H42.1864M19.3051 8.5L13.5813 15.0665C13.3473 15.3349 13.2737 15.7074 13.388 16.0446L16.5326 25.321C16.6701 25.7269 17.0511 26 17.4796 26H20.0678M19.3051 8.5H42.1864M42.1864 8.5L48.3834 15.0624C48.6376 15.3316 48.7223 15.7193 48.6034 16.07L45.4674 25.321C45.3299 25.7269 44.9489 26 44.5204 26H41.678M20.0678 26H22.3729C22.9252 26 23.3729 25.5523 23.3729 25V20C23.3729 19.4477 23.8206 19 24.3729 19H37.1186C37.6709 19 38.1186 19.4477 38.1186 20V25C38.1186 25.5523 38.5664 26 39.1186 26H41.678M20.0678 26V32.5C20.0678 33.0523 20.5155 33.5 21.0678 33.5H23.8814M41.678 26V32.5C41.678 33.0523 41.2303 33.5 40.678 33.5H38.1186M23.8814 33.5H38.1186M23.8814 33.5V42M38.1186 33.5V42M23.8814 42H28.9661M23.8814 42V47.5M38.1186 42H28.9661M38.1186 42V52M43.7119 52L47.7797 50M20.0678 48.5L16.2542 44.5M1 55.5H19.0678C19.6201 55.5 20.0678 55.9477 20.0678 56.5V61H41.678V56.5C41.678 55.9477 42.1257 55.5 42.678 55.5H61M28.9661 42L38.1186 52M38.1186 52V57H33.0339M23.8814 47.5L33.0339 57M23.8814 47.5V53V57H27.9492H33.0339M41.678 48.5L45.7458 44M17.7797 52L14.2203 50" stroke="#625F4E" stroke-width="2" stroke-linecap="round"/>
</svg>
