<svg xmlns="http://www.w3.org/2000/svg">
    <symbol id="drill" viewBox="0 0 63 60">
        <path d="M38.6514 59H32.7982V54.422C32.7982 51.6606 35.0367 49.422 37.7982 49.422H41.844M38.6514 59H56.7431V49.422H54.6147M38.6514 59V56.211C38.6514 55.1064 39.5468 54.211 40.6514 54.211H53.0183M54.6147 49.422H41.844M54.6147 49.422L53.9407 39.3119M52.4862 21.2202L53.9407 39.3119M41.844 49.422L44.5046 44.1009L40.7798 29.2018M40.7798 29.2018L42.9083 21.2202H34.9266M40.7798 29.2018H37.055L34.9266 21.2202M53.9407 39.3119H49.8257L47.6972 29.2018L49.8257 21.2202H53.4679C57.3339 21.2202 60.4679 18.0862 60.4679 14.2202V8C60.4679 4.13401 57.3339 1 53.4679 1H24.8165V4.19266M34.9266 21.2202H24.8165V18.5596M24.8165 4.19266H20.9633C19.8587 4.19266 18.9633 5.08809 18.9633 6.19266V6.3211M24.8165 4.19266V18.5596M24.8165 18.5596H20.9633C19.8587 18.5596 18.9633 17.6642 18.9633 16.5596V16.4312M18.9633 6.3211H14.578C13.4734 6.3211 12.578 7.21653 12.578 8.3211V9.51376M18.9633 6.3211V16.4312M18.9633 16.4312H14.578C13.4734 16.4312 12.578 15.5358 12.578 14.4312V13.7706M12.578 13.7706H6.72477L3 11.6422L6.72477 9.51376H12.578M12.578 13.7706V9.51376M30.6697 7.38532H39.1835M30.6697 11.1101H39.1835M30.6697 14.8349H39.1835M42.9083 7.38532H54.6147V14.8349H42.9083V7.38532Z" fill="white" stroke="#625F4E" stroke-width="2"/>
    </symbol>
</svg>
