<svg xmlns="http://www.w3.org/2000/svg">
    <symbol id="floor" viewBox="0 0 60 54">
        <path d="M15.2578 0.949215C15.1289 1.0664 12.0352 4.55859 8.36718 8.71875C4.71093 12.8789 1.54687 16.4766 1.32421 16.7227L0.937494 17.1562V19.4766C0.937494 21.293 0.97265 21.8437 1.10156 22.0312C1.2539 22.2305 1.46484 22.2539 3.36328 22.3125L5.44921 22.3711L4.51171 23.4258C3.98437 24 2.97656 25.1484 2.24999 25.9687L0.937494 27.4687V29.8125C0.937494 32.8594 0.726556 32.625 3.45703 32.625C4.58203 32.625 5.50781 32.6484 5.50781 32.6836C5.50781 32.7187 4.47656 34.5234 3.22265 36.7031L0.937494 40.6641V46.7227C0.937494 52.6289 0.949213 52.793 1.17187 53.0156C1.40624 53.25 1.55859 53.25 30 53.25C58.4414 53.25 58.5937 53.25 58.8281 53.0156C59.0508 52.793 59.0625 52.6289 59.0625 46.7109V40.6523L56.8242 36.7852C55.5937 34.6523 54.5625 32.8477 54.5273 32.7773C54.4805 32.6602 54.9258 32.625 56.5312 32.625C59.2734 32.625 59.0625 32.8594 59.0625 29.8125V27.4687L57.75 25.9687C57.0234 25.1484 56.0156 24 55.4883 23.4258L54.5508 22.3711L56.6367 22.3125C58.5352 22.2539 58.7461 22.2305 58.8984 22.0312C59.0273 21.8437 59.0625 21.293 59.0625 19.4766V17.1562L58.6758 16.7227C58.4531 16.4766 55.2891 12.8789 51.6328 8.71875C47.9648 4.55859 44.8711 1.0664 44.7422 0.949215C44.5195 0.761715 43.6523 0.749996 30 0.749996C16.3476 0.749996 15.4805 0.761715 15.2578 0.949215ZM49.7109 9.62109L55.8867 16.6289L42.9492 16.6641C35.8242 16.6758 24.1758 16.6758 17.0508 16.6641L4.11328 16.6289L10.2891 9.62109L16.4648 2.625H30H43.5352L49.7109 9.62109ZM57.1875 19.5V20.4375H30H2.81249V19.5V18.5625H30H57.1875V19.5ZM53.8711 24.6328L55.8867 26.9414L42.9492 26.9766C35.8242 26.9883 24.1758 26.9883 17.0508 26.9766L4.11328 26.9414L6.1289 24.6328L8.14453 22.3242H30H51.8555L53.8711 24.6328ZM57.1875 29.8125V30.75H30H2.81249V29.8125V28.875H30H57.1875V29.8125ZM9.97265 33.3516C9.25781 34.9219 8.63671 37.3828 8.48437 39.1875L8.40234 40.125H6.01171C4.68749 40.125 3.63281 40.0781 3.65624 40.0312C3.67968 39.9727 4.64062 38.2852 5.80078 36.2812L7.91015 32.625H9.10546H10.3008L9.97265 33.3516ZM16.1719 32.8359C15.5625 33.2344 14.8359 34.0898 14.4844 34.8398C14.1211 35.6133 14.1211 35.6133 14.0859 37.8633L14.0508 40.125H12.2227H10.3945L10.4766 39.2695C10.6523 37.4531 11.2383 35.3672 12.0703 33.5859L12.5273 32.625L14.4961 32.6367C16.3711 32.6367 16.4531 32.6484 16.1719 32.8359ZM23.4375 32.8594C23.3672 32.9766 23.0039 33.4453 22.6172 33.8789C21.8672 34.7227 20.9883 36.3516 20.7539 37.3359C20.6836 37.6406 20.625 38.3906 20.625 39V40.125H18.2695H15.9141L15.9609 38.2148C16.0195 36.1055 16.125 35.6836 16.793 34.9922C17.2852 34.4766 17.6836 34.2773 18.7383 34.0078C19.6289 33.7852 20.2734 33.4687 20.918 32.9297C21.2344 32.6602 21.3633 32.6367 22.418 32.625C23.5195 32.625 23.5547 32.6367 23.4375 32.8594ZM29.0625 36.375V40.125H25.7695H22.4766L22.5586 39.0937C22.7109 37.2773 23.0508 36.5156 24.4687 34.8516C24.8203 34.4414 25.2656 33.7734 25.4648 33.3633L25.8281 32.625H27.4453H29.0625V36.375ZM35.7422 32.7422C35.7422 32.9414 36.3281 39.3516 36.375 39.7383L36.4336 40.125H33.6797H30.9375V36.375V32.625H33.3398C34.8398 32.625 35.7422 32.6719 35.7422 32.7422ZM39.375 36.375V40.125H38.918C38.3672 40.125 38.4375 40.4297 38.0859 36.4336C37.957 34.9453 37.8164 33.4922 37.7812 33.1758L37.7109 32.625H38.543H39.375V36.375ZM45.3867 33C45.2695 33.2109 44.7656 33.7734 44.2617 34.2539C42.6445 35.8125 42.1875 36.8437 42.1875 38.9062V40.125H41.707H41.2383L41.2734 36.5156C41.2969 34.5352 41.3555 32.8477 41.4023 32.7656C41.4727 32.6602 42.0352 32.625 43.5469 32.625H45.5977L45.3867 33ZM54.1992 36.2695C55.3594 38.2852 56.332 39.9727 56.3437 40.0195C56.3672 40.0781 54.8789 40.125 53.0391 40.125H49.6875V39.6211C49.6875 38.2266 48.9609 36.668 47.707 35.4258L46.8164 34.5234L47.0625 34.1367C47.1914 33.9141 47.4023 33.4922 47.5195 33.1758L47.7305 32.625H49.9102H52.0898L54.1992 36.2695ZM45.9141 36.4922C46.8398 37.1602 47.543 38.3789 47.6602 39.4922L47.7305 40.125H45.8789H44.0273L44.0977 39.0937C44.1445 38.5312 44.25 37.8281 44.3555 37.5352C44.5312 37.0312 45.1523 36.1406 45.3398 36.1406C45.3984 36.1406 45.6562 36.3047 45.9141 36.4922ZM29.0625 43.6406C29.0625 45.8203 28.9922 45.75 31.1133 45.75C32.918 45.75 33.457 45.8906 33.5859 46.3828C33.6211 46.5469 33.6211 46.8281 33.5859 46.9922C33.457 47.4844 32.918 47.625 31.1133 47.625C28.9922 47.625 29.0625 47.5547 29.0625 49.7344V51.375H15.9375H2.81249V46.6875V42H15.9375H29.0625V43.6406ZM57.1875 46.6875V51.375H44.0625H30.9375V50.4375V49.5H32.2266C33.6797 49.5 34.1484 49.3594 34.793 48.7617C35.3555 48.2227 35.625 47.5781 35.625 46.7109C35.625 45.8555 35.4023 45.2578 34.8867 44.707C34.2539 44.0391 33.75 43.875 32.2617 43.875H30.9375V42.9375V42H44.0625H57.1875V46.6875Z" fill="#625F4E"/>
    </symbol>
</svg>
