<svg xmlns="http://www.w3.org/2000/svg">
    <symbol id="house" viewBox="0 0 60 60">
        <path d="M28.9688 0.234375C28.1836 0.714844 0.445339 23.8242 0.222683 24.1875C-0.0702857 24.6562 -0.0820044 25.6992 0.210964 26.2148C0.574246 26.8828 3.0469 29.5781 3.55081 29.8477C4.13675 30.1875 4.83987 30.1875 5.44925 29.8828C5.70706 29.7539 5.92971 29.6484 5.94143 29.6484C5.96487 29.6484 5.97659 30.1992 5.97659 30.8789V32.1094L5.543 32.332C4.95706 32.625 4.52346 33.1055 4.2305 33.75C3.99612 34.2656 3.9844 34.4883 3.9844 41.0273V47.7656L4.28909 48.375C4.6055 49.0078 5.26175 49.6523 5.70706 49.7578L5.96487 49.8281L6.00003 54.3164C6.03518 58.6641 6.0469 58.8164 6.28128 59.1445C6.41018 59.3203 6.70315 59.5898 6.91409 59.7422L7.30081 60H30H52.6992L53.086 59.7305C53.2969 59.5898 53.5899 59.3203 53.7188 59.1445C53.9531 58.8164 53.9649 58.6641 54 54.3164L54.0352 49.8281L54.293 49.7578C54.7383 49.6523 55.3946 49.0078 55.711 48.375L56.0156 47.7656V41.0273C56.0156 34.4883 56.0039 34.2656 55.7696 33.75C55.4766 33.1055 55.043 32.625 54.4688 32.332L54.0235 32.1094V30.8789C54.0235 30.1992 54.0352 29.6484 54.0586 29.6484C54.0703 29.6484 54.293 29.7539 54.5508 29.8828C55.1602 30.1875 55.8633 30.1875 56.4492 29.8477C56.9531 29.5781 59.4258 26.8828 59.7891 26.2148C60.0469 25.7578 60.0703 24.7266 59.8242 24.2578C59.7188 24.0586 58.3828 22.8516 56.836 21.5625L54.0352 19.2188L54 13.1953C53.9649 7.3125 53.9531 7.16016 53.7188 6.84375C53.5899 6.66797 53.3321 6.41016 53.1563 6.28125C52.8516 6.04688 52.6524 6.03516 49.5821 6C46.3711 5.96484 46.336 5.96484 45.9492 6.23438C45.0938 6.80859 45.0703 6.91406 45 9.42188L44.9414 11.6953L38.3203 6.1875C34.6758 3.15234 31.4649 0.527344 31.1836 0.339844C30.5157 -0.09375 29.5782 -0.128906 28.9688 0.234375ZM43.7813 13.5352C51.3164 19.7812 57.5625 24.9844 57.6797 25.0781C57.8789 25.2422 57.8203 25.3359 56.6953 26.6016L55.4883 27.9609L43.0078 17.6016C36.1524 11.918 30.4102 7.23047 30.2696 7.19531C30.1172 7.14844 29.8828 7.14844 29.7305 7.19531C29.5899 7.23047 23.8594 11.9062 17.0157 17.5781C6.9844 25.8984 4.52346 27.8789 4.39456 27.7734C4.30081 27.7031 3.75003 27.0938 3.17581 26.4258L2.12112 25.2305L16.0313 13.6758C23.6836 7.32422 29.9766 2.13281 30.0235 2.14453C30.0586 2.15625 36.2578 7.27734 43.7813 13.5352ZM51.9141 12.7852V17.4844L51.1289 16.8164C50.6836 16.4531 49.6055 15.5625 48.7266 14.8477L47.1211 13.5352V10.8047L47.1094 8.08594H49.5117H51.9141V12.7852ZM40.9571 18.7031L51.9141 27.7969V29.8945V31.9922H48.4571H45V31.6055C45 31.043 44.5078 30.0938 43.9922 29.6719C43.1133 28.9453 43.1602 28.9453 35.9297 28.9453H29.3555L28.7696 29.2266C27.7735 29.6836 27.1172 30.5391 26.9883 31.5352L26.918 31.9922H17.5078H8.08596V29.8945V27.7969L19.0196 18.7148C25.0196 13.7109 29.9532 9.62109 29.9649 9.62109C29.9883 9.60938 34.9336 13.6992 40.9571 18.7031ZM42.5977 31.3477L42.8907 31.6289V38.3203V45H39.1992C35.6836 45 35.4961 45.0117 35.2735 45.2344C34.9571 45.5508 34.8633 45.9961 35.0508 46.418C35.3086 47.0625 35.5899 47.1094 39.4336 47.1094H42.8907V49.043V50.9766H35.9766H29.0625V49.0547V47.1328L30.7735 47.0859C32.4844 47.0508 32.4844 47.0508 32.7657 46.7227C33.1407 46.2773 33.1407 45.668 32.7539 45.293C32.4844 45.0117 32.4258 45 30.7617 45H29.0625V38.4375C29.0625 33.8789 29.0977 31.8047 29.1914 31.5938C29.2617 31.4414 29.4375 31.2539 29.5782 31.1953C29.7305 31.1133 32.0274 31.0664 36.0703 31.0664L42.3164 31.0547L42.5977 31.3477ZM8.26175 36.2109C7.10159 37.3711 6.14065 38.3203 6.12893 38.3203C6.1055 38.3203 6.09378 37.5117 6.09378 36.5156C6.09378 34.875 6.11721 34.6875 6.33987 34.4062L6.57425 34.1016H8.47268H10.3711L8.26175 36.2109ZM12.2461 40.1953L6.15237 46.2891L6.11721 43.8633L6.09378 41.4375L9.75003 37.7695L13.418 34.1016H15.8789H18.3399L12.2461 40.1953ZM19.5117 41.0156L12.5977 47.9297H10.0782H7.55862L14.4727 41.0156L21.3867 34.1016H23.9063H26.4258L19.5117 41.0156ZM49.336 34.1367C49.336 34.1484 48.3633 35.1328 47.168 36.3281L45 38.4961V36.293V34.1016H47.168C48.3633 34.1016 49.336 34.1133 49.336 34.1367ZM53.6602 34.4062C53.8828 34.6875 53.9063 34.875 53.9063 36.1406V37.5586L49.4531 42.0117L45 46.4648V44.0039V41.543L48.7149 37.8281C52.418 34.125 52.4414 34.1016 52.9336 34.1016C53.3203 34.1016 53.4727 34.1602 53.6602 34.4062ZM23.7657 44.7305L20.5664 47.9297H18.1055H15.6446L21.2696 42.3047L26.8946 36.6797L26.9297 39.1055L26.9532 41.5312L23.7657 44.7305ZM53.9063 44.0039V47.3555L53.6133 47.6367L53.3321 47.9297H49.9571H46.5821L50.2149 44.2969C52.2071 42.293 53.8594 40.6641 53.8711 40.6641C53.8946 40.6641 53.9063 42.1641 53.9063 44.0039ZM26.9532 46.2891V47.9297H25.2891H23.6133L25.2539 46.2891C26.1563 45.3867 26.9063 44.6484 26.918 44.6484C26.9414 44.6484 26.9532 45.3867 26.9532 46.2891ZM26.9532 52.7344V55.4414L27.2461 55.7227C27.5977 56.0859 28.3242 56.1211 28.7227 55.793C28.9805 55.582 29.0039 55.4648 29.0391 54.3281L29.086 53.0859H30H30.9141L30.961 54.3281C30.9961 55.4648 31.0196 55.582 31.2774 55.793C31.6758 56.1211 32.4024 56.0859 32.7539 55.7227C33.0235 55.4648 33.0469 55.3594 33.0469 54.2578V53.0859H33.9844H34.9219V54.1523C34.9219 55.5938 35.168 56.0039 36.0117 56.0156C36.3282 56.0156 36.5391 55.9336 36.7383 55.7227C37.0078 55.4648 37.0313 55.3594 37.0313 54.2578V53.0859H37.9688H38.9063V54.1875C38.9063 55.207 38.9297 55.3242 39.211 55.6523C39.6094 56.1328 40.2891 56.168 40.7227 55.7227C40.9922 55.4648 41.0157 55.3594 41.0157 54.2578V53.0859H41.9414H42.8672L42.9141 54.2578C42.9492 55.2891 42.9844 55.4531 43.2422 55.7227C43.6055 56.1094 44.3321 56.1328 44.7305 55.7578C45 55.5117 45 55.4766 45 52.7695V50.0391H48.4571H51.9141V53.9648V57.8906H30H8.08596V53.9648V50.0391H17.5196H26.9532V52.7344Z" fill="#625F4E"/>
    </symbol>
</svg>
