<svg width="60" height="60" viewBox="0 0 60 60" fill="none" xmlns="http://www.w3.org/2000/svg">
<path d="M28.9688 0.234375C28.1837 0.714844 0.4454 23.8242 0.222744 24.1875C-0.0702246 24.6562 -0.0819434 25.6992 0.211025 26.2148C0.574307 26.8828 3.04696 29.5781 3.55087 29.8477C4.13681 30.1875 4.83993 30.1875 5.44931 29.8828C5.70712 29.7539 5.92978 29.6484 5.94149 29.6484C5.96493 29.6484 5.97665 30.1992 5.97665 30.8789V32.1094L5.54306 32.332C4.95712 32.625 4.52353 33.1055 4.23056 33.75C3.99618 34.2656 3.98446 34.4883 3.98446 41.0273V47.7656L4.28915 48.375C4.60556 49.0078 5.26181 49.6523 5.70712 49.7578L5.96493 49.8281L6.00009 54.3164C6.03524 58.6641 6.04696 58.8164 6.28134 59.1445C6.41024 59.3203 6.70321 59.5898 6.91415 59.7422L7.30087 60H30.0001H52.6993L53.086 59.7305C53.297 59.5898 53.5899 59.3203 53.7188 59.1445C53.9532 58.8164 53.9649 58.6641 54.0001 54.3164L54.0352 49.8281L54.2931 49.7578C54.7384 49.6523 55.3946 49.0078 55.711 48.375L56.0157 47.7656V41.0273C56.0157 34.4883 56.004 34.2656 55.7696 33.75C55.4766 33.1055 55.0431 32.625 54.4688 32.332L54.0235 32.1094V30.8789C54.0235 30.1992 54.0352 29.6484 54.0587 29.6484C54.0704 29.6484 54.2931 29.7539 54.5509 29.8828C55.1602 30.1875 55.8634 30.1875 56.4493 29.8477C56.9532 29.5781 59.4259 26.8828 59.7891 26.2148C60.047 25.7578 60.0704 24.7266 59.8243 24.2578C59.7188 24.0586 58.3829 22.8516 56.836 21.5625L54.0352 19.2188L54.0001 13.1953C53.9649 7.3125 53.9532 7.16016 53.7188 6.84375C53.5899 6.66797 53.3321 6.41016 53.1563 6.28125C52.8516 6.04688 52.6524 6.03516 49.5821 6C46.3712 5.96484 46.336 5.96484 45.9493 6.23438C45.0938 6.80859 45.0704 6.91406 45.0001 9.42188L44.9415 11.6953L38.3204 6.1875C34.6759 3.15234 31.4649 0.527344 31.1837 0.339844C30.5157 -0.09375 29.5782 -0.128906 28.9688 0.234375ZM43.7813 13.5352C51.3165 19.7812 57.5626 24.9844 57.6798 25.0781C57.879 25.2422 57.8204 25.3359 56.6954 26.6016L55.4884 27.9609L43.0079 17.6016C36.1524 11.918 30.4102 7.23047 30.2696 7.19531C30.1173 7.14844 29.8829 7.14844 29.7306 7.19531C29.5899 7.23047 23.8595 11.9062 17.0157 17.5781C6.98446 25.8984 4.52353 27.8789 4.39462 27.7734C4.30087 27.7031 3.75009 27.0938 3.17587 26.4258L2.12118 25.2305L16.0313 13.6758C23.6837 7.32422 29.9767 2.13281 30.0235 2.14453C30.0587 2.15625 36.2579 7.27734 43.7813 13.5352ZM51.9141 12.7852V17.4844L51.129 16.8164C50.6837 16.4531 49.6056 15.5625 48.7266 14.8477L47.1212 13.5352V10.8047L47.1095 8.08594H49.5118H51.9141V12.7852ZM40.9571 18.7031L51.9141 27.7969V29.8945V31.9922H48.4571H45.0001V31.6055C45.0001 31.043 44.5079 30.0938 43.9923 29.6719C43.1134 28.9453 43.1602 28.9453 35.9298 28.9453H29.3556L28.7696 29.2266C27.7735 29.6836 27.1173 30.5391 26.9884 31.5352L26.9181 31.9922H17.5079H8.08603V29.8945V27.7969L19.0196 18.7148C25.0196 13.7109 29.9532 9.62109 29.9649 9.62109C29.9884 9.60938 34.9337 13.6992 40.9571 18.7031ZM42.5977 31.3477L42.8907 31.6289V38.3203V45H39.1993C35.6837 45 35.4962 45.0117 35.2735 45.2344C34.9571 45.5508 34.8634 45.9961 35.0509 46.418C35.3087 47.0625 35.5899 47.1094 39.4337 47.1094H42.8907V49.043V50.9766H35.9767H29.0626V49.0547V47.1328L30.7735 47.0859C32.4845 47.0508 32.4845 47.0508 32.7657 46.7227C33.1407 46.2773 33.1407 45.668 32.754 45.293C32.4845 45.0117 32.4259 45 30.7618 45H29.0626V38.4375C29.0626 33.8789 29.0977 31.8047 29.1915 31.5938C29.2618 31.4414 29.4376 31.2539 29.5782 31.1953C29.7306 31.1133 32.0274 31.0664 36.0704 31.0664L42.3165 31.0547L42.5977 31.3477ZM8.26181 36.2109C7.10165 37.3711 6.14071 38.3203 6.12899 38.3203C6.10556 38.3203 6.09384 37.5117 6.09384 36.5156C6.09384 34.875 6.11728 34.6875 6.33993 34.4062L6.57431 34.1016H8.47274H10.3712L8.26181 36.2109ZM12.2462 40.1953L6.15243 46.2891L6.11728 43.8633L6.09384 41.4375L9.75009 37.7695L13.4181 34.1016H15.879H18.3399L12.2462 40.1953ZM19.5118 41.0156L12.5977 47.9297H10.0782H7.55868L14.4727 41.0156L21.3868 34.1016H23.9063H26.4259L19.5118 41.0156ZM49.336 34.1367C49.336 34.1484 48.3634 35.1328 47.1681 36.3281L45.0001 38.4961V36.293V34.1016H47.1681C48.3634 34.1016 49.336 34.1133 49.336 34.1367ZM53.6602 34.4062C53.8829 34.6875 53.9063 34.875 53.9063 36.1406V37.5586L49.4532 42.0117L45.0001 46.4648V44.0039V41.543L48.7149 37.8281C52.4181 34.125 52.4415 34.1016 52.9337 34.1016C53.3204 34.1016 53.4727 34.1602 53.6602 34.4062ZM23.7657 44.7305L20.5665 47.9297H18.1056H15.6446L21.2696 42.3047L26.8946 36.6797L26.9298 39.1055L26.9532 41.5312L23.7657 44.7305ZM53.9063 44.0039V47.3555L53.6134 47.6367L53.3321 47.9297H49.9571H46.5821L50.2149 44.2969C52.2071 42.293 53.8595 40.6641 53.8712 40.6641C53.8946 40.6641 53.9063 42.1641 53.9063 44.0039ZM26.9532 46.2891V47.9297H25.2892H23.6134L25.254 46.2891C26.1563 45.3867 26.9063 44.6484 26.9181 44.6484C26.9415 44.6484 26.9532 45.3867 26.9532 46.2891ZM26.9532 52.7344V55.4414L27.2462 55.7227C27.5977 56.0859 28.3243 56.1211 28.7227 55.793C28.9806 55.582 29.004 55.4648 29.0392 54.3281L29.086 53.0859H30.0001H30.9142L30.961 54.3281C30.9962 55.4648 31.0196 55.582 31.2774 55.793C31.6759 56.1211 32.4024 56.0859 32.754 55.7227C33.0235 55.4648 33.047 55.3594 33.047 54.2578V53.0859H33.9845H34.922V54.1523C34.922 55.5938 35.1681 56.0039 36.0118 56.0156C36.3282 56.0156 36.5392 55.9336 36.7384 55.7227C37.0079 55.4648 37.0313 55.3594 37.0313 54.2578V53.0859H37.9688H38.9063V54.1875C38.9063 55.207 38.9298 55.3242 39.211 55.6523C39.6095 56.1328 40.2892 56.168 40.7227 55.7227C40.9923 55.4648 41.0157 55.3594 41.0157 54.2578V53.0859H41.9415H42.8673L42.9142 54.2578C42.9493 55.2891 42.9845 55.4531 43.2423 55.7227C43.6056 56.1094 44.3321 56.1328 44.7306 55.7578C45.0001 55.5117 45.0001 55.4766 45.0001 52.7695V50.0391H48.4571H51.9141V53.9648V57.8906H30.0001H8.08603V53.9648V50.0391H17.5196H26.9532V52.7344Z" fill="#625F4E"/>
</svg>
