<svg xmlns="http://www.w3.org/2000/svg">
    <symbol id="pipe" viewBox="0 0 60 60">
        <path d="M0.241936 55.8871C0.375 56.0202 0.592743 56.129 0.725807 56.129C0.955647 56.129 0.967743 56.2137 0.967743 58.0645V60H1.93549L2.90323 60V58.0645V56.129H4.83871H6.7742V58.0645V60H7.74194H8.70968V58.0645C8.70968 56.2137 8.72178 56.129 8.95161 56.129C9.08468 56.129 9.30242 56.0202 9.43549 55.8871C9.66533 55.6573 9.67742 55.4879 9.67742 53.2258C9.67742 50.9637 9.66533 50.7944 9.43549 50.5645C9.30242 50.4315 9.08468 50.3226 8.95161 50.3226C8.72178 50.3226 8.70968 50.2379 8.70968 48.4476C8.70968 45.5081 8.73387 45.4839 11.6855 45.4839H13.5484V52.7419V60H14.5161H15.4839V52.7419V45.4839H17.4194H19.3548V52.7419V60H20.3226H21.2903V52.7419V45.4839H23.2258H25.1613V52.7419V60H26.129H27.0847L27.1331 46.8992C27.1694 32.8186 27.1452 33.496 27.7863 32.0565C28.3669 30.7621 29.7823 29.3468 31.0887 28.754C32.2137 28.246 32.7702 28.1734 35.625 28.1008C37.1492 28.0766 38.5887 27.9919 38.8185 27.9194C39.3629 27.75 40.1492 27.0242 40.4153 26.4315C40.6089 26.0202 40.6452 25.6089 40.6452 23.6129V21.2903H42.5927H44.5524L44.4798 23.7339C44.4315 25.9355 44.3831 26.2863 44.1048 27.1573C43.621 28.6694 42.6895 29.879 41.3347 30.7863C39.9798 31.6815 38.6613 31.9355 35.2258 31.9355C32.9032 31.9355 32.5524 32.0202 31.8266 32.6976C31.6089 32.9153 31.3186 33.3024 31.1976 33.5686C30.9798 34.0282 30.9677 34.6452 30.9677 47.0202V60H31.9355H32.9032V52.7419V45.4839H42.254C51.1694 45.4839 51.6532 45.4718 52.5484 45.2419C55.5484 44.4798 58.0282 42 58.7903 39C59.0202 38.0927 59.0323 37.5968 59.0323 23.8669C59.0323 9.7621 59.0323 9.67742 59.2742 9.67742C59.4073 9.67742 59.625 9.56855 59.7581 9.43549C59.9879 9.20565 60 9.03629 60 6.7742C60 4.5121 59.9879 4.34274 59.7581 4.1129C59.625 3.97984 59.4073 3.87097 59.2742 3.87097C59.0444 3.87097 59.0323 3.78629 59.0323 1.93549L59.0323 0H58.0645H57.0968V1.93549V3.87097H55.1613H53.2258V1.93549V0H52.2581H51.2903V1.93549C51.2903 3.78629 51.2782 3.87097 51.0484 3.87097C50.9153 3.87097 50.6976 3.97984 50.5645 4.1129C50.3347 4.34274 50.3226 4.5121 50.3226 6.7742C50.3226 9.03629 50.3347 9.20565 50.5645 9.43549C50.6976 9.56855 50.9153 9.67742 51.0484 9.67742C51.2903 9.67742 51.2903 9.7621 51.2903 23.1653C51.2903 38.0202 51.3266 37.3427 50.5645 37.6089C50.2742 37.7056 47.6613 37.7419 41.5403 37.7419H32.9032V36.3508C32.9032 34.6815 33.0484 34.2097 33.629 34.004C33.8831 33.9194 34.9718 33.871 36.5323 33.871C38.625 33.871 39.1815 33.8347 39.9677 33.629C42.9677 32.8669 45.4476 30.3871 46.2097 27.3871C46.4153 26.6008 46.4516 26.0444 46.4516 23.8669C46.4516 21.375 46.4637 21.2903 46.6935 21.2903C46.8266 21.2903 47.0444 21.1815 47.1774 21.0484C47.4073 20.8186 47.4194 20.6492 47.4194 18.3871C47.4194 16.125 47.4073 15.9556 47.1774 15.7258C47.0444 15.5927 46.8266 15.4839 46.6935 15.4839C46.4516 15.4839 46.4516 15.3992 46.4516 11.6129C46.4516 7.82661 46.4516 7.74194 46.6935 7.74194C46.8266 7.74194 47.0444 7.63306 47.1774 7.5C47.4073 7.27016 47.4194 7.10081 47.4194 4.83871C47.4194 2.57661 47.4073 2.40726 47.1774 2.17742C47.0444 2.04436 46.8266 1.93549 46.6935 1.93549C46.4758 1.93549 46.4516 1.85081 46.4516 0.967743V0H45.4839H44.5161V0.967743V1.93549H42.5806H40.6452V0.967743V0H39.6774H38.7097V0.967743C38.7097 1.85081 38.6855 1.93549 38.4677 1.93549C38.3347 1.93549 38.1169 2.04436 37.9839 2.17742C37.754 2.40726 37.7419 2.57661 37.7419 4.83871C37.7419 7.10081 37.754 7.27016 37.9839 7.5C38.2258 7.74194 38.2258 7.74194 37.5 7.74194C36.8589 7.74194 36.7742 7.71774 36.7742 7.5C36.7742 7.36694 36.6653 7.1492 36.5323 7.01613C36.3024 6.78629 36.1331 6.7742 33.871 6.7742C31.6089 6.7742 31.4395 6.78629 31.2097 7.01613C31.0766 7.1492 30.9677 7.36694 30.9677 7.5C30.9677 7.74194 30.8831 7.74194 26.129 7.74194H21.2903V3.87097L21.2903 0H20.3226H19.3548L19.3548 3.87097V7.74194H17.4194H15.4839V3.87097L15.4839 0H14.5161H13.5484L13.5484 3.87097V7.74194H6.7742L0 7.74194V8.70968V9.67742L15.4839 9.67742H30.9677V11.6129V13.5484H15.4839L0 13.5484V14.5161V15.4839L6.7742 15.4839H13.5484V26.6129V37.7419H10.9718C8.79436 37.7419 8.2379 37.7782 7.45161 37.9839C4.45161 38.746 1.97178 41.2258 1.20968 44.2258C1.00403 45.0121 0.967743 45.5685 0.967743 47.746C0.967743 50.2379 0.955647 50.3226 0.725807 50.3226C0.592743 50.3226 0.375 50.4315 0.241936 50.5645C0.0121002 50.7944 0 50.9637 0 53.2258C0 55.4879 0.0121002 55.6573 0.241936 55.8871ZM4.83871 52.2581H7.74194V53.2258V54.1935H4.83871H1.93549V53.2258V52.2581H4.83871ZM3.18145 44.8185C3.85887 42.4113 5.57661 40.6935 8.04436 39.9435C8.55242 39.7863 9.95565 39.75 16.8992 39.7137L25.1613 39.6653V41.6008V43.5484H17.0565C8.11694 43.5484 8.46774 43.5242 7.63306 44.3105C6.85887 45.0484 6.7742 45.3871 6.7742 47.9879V50.3226H4.82661H2.86694L2.93952 47.8669C2.9879 46.3548 3.07258 45.1935 3.18145 44.8185ZM17.4194 15.4839H19.3548V26.6129V37.7419H17.4194H15.4839V26.6129V15.4839H17.4194ZM26.129 15.4839C30.8831 15.4839 30.9677 15.4839 30.9677 15.7258C30.9677 15.8589 31.0766 16.0766 31.2097 16.2097C31.4395 16.4395 31.6089 16.4516 33.871 16.4516C36.1331 16.4516 36.3024 16.4395 36.5323 16.2097C36.6653 16.0766 36.7742 15.8589 36.7742 15.7258C36.7742 15.5081 36.8589 15.4839 37.5 15.4839C38.2258 15.4839 38.2258 15.4839 37.9839 15.7258C37.754 15.9556 37.7419 16.125 37.7419 18.3871C37.7419 20.6492 37.754 20.8186 37.9839 21.0484C38.1169 21.1815 38.3347 21.2903 38.4677 21.2903C38.6976 21.2903 38.7097 21.375 38.7097 23.1532C38.7097 24.2177 38.6492 25.1734 38.5766 25.4032C38.3468 26.0565 37.9839 26.129 35.1048 26.129C32.9879 26.129 32.4315 26.1653 31.6452 26.371C28.6452 27.1331 26.1653 29.6129 25.4032 32.6129C25.2097 33.3629 25.1613 33.9556 25.1613 35.6492V37.7419H23.2258H21.2903V26.6129V15.4839H26.129ZM42 39.6774C50.6129 39.6774 51.1331 39.6653 51.5927 39.4476C51.8589 39.3266 52.246 39.0363 52.4637 38.8185C53.2742 37.9597 53.2258 38.9516 53.2258 23.5887V9.67742H55.1613H57.1089L57.0726 23.7339L57.0363 37.8024L56.7097 38.7702C55.8024 41.4194 53.6976 43.1129 50.879 43.4395C50.3347 43.5 46.0766 43.5484 41.3952 43.5484H32.9032V41.6129V39.6774H42ZM33.871 8.70968H34.8387V11.6129V14.5161H33.871H32.9032V11.6129V8.70968H33.871ZM38.4677 9.67742C40.5363 9.67742 40.6452 9.61694 40.6452 8.46774V7.74194H42.5806H44.5161V11.6129V15.4839H42.5806H40.6452V14.7581C40.6452 13.6089 40.5363 13.5484 38.4677 13.5484H36.7742V11.6129V9.67742H38.4677ZM42.5806 17.4194H45.4839V18.3871V19.3548H42.5806H39.6774V18.3871V17.4194H42.5806ZM42.5806 3.87097H45.4839V4.83871V5.80645H42.5806H39.6774V4.83871V3.87097H42.5806ZM55.1613 5.80645H58.0645V6.7742V7.74194H55.1613H52.2581V6.7742V5.80645H55.1613Z" fill="#625F4E"/>
    </symbol>
</svg>
