<svg width="53" height="60" viewBox="0 0 53 60" fill="none" xmlns="http://www.w3.org/2000/svg">
<path d="M5.17589 0.222656C2.70323 1.11328 0.757918 4.125 0.148543 7.95703C0.00791802 8.91797 -0.0155195 10.9219 0.00791802 21.5625L0.0430743 34.043L0.312606 34.6055C0.664168 35.3086 1.42589 36.0703 2.16417 36.4453C2.65636 36.6914 2.89073 36.7383 3.85167 36.7383C4.6837 36.7383 5.0587 36.6914 5.32823 36.5391L5.70323 36.3398L5.75011 38.0039C5.78526 39.4922 5.82042 39.7383 6.10167 40.3242C6.48839 41.1797 7.21495 41.8945 8.0587 42.2812C8.58604 42.5273 8.89073 42.5859 9.65245 42.5859C11.0587 42.5859 12.1368 42.0352 12.8751 40.957C13.5314 40.0078 13.5782 39.6562 13.5782 35.8945V32.4844L14.1642 32.707C16.379 33.5508 18.8985 32.0859 19.3087 29.7188C19.379 29.2852 19.4376 27.3984 19.4376 25.1602V21.3281L33.0665 21.3047L46.6837 21.2695L47.4454 20.9062C48.254 20.5195 49.3673 19.582 49.9415 18.8086L50.2814 18.3398L50.2345 19.7461C50.1993 21.0586 50.1759 21.2109 49.8126 21.9375C49.379 22.8281 48.8517 23.3438 47.9142 23.7773L47.2696 24.082L38.4806 24.1406L29.6915 24.1992L28.8712 24.5391C27.0782 25.2773 25.7892 26.6836 25.3673 28.3477C25.2384 28.8516 25.1915 28.8867 24.8165 28.9219C23.2462 29.0391 23.1876 29.1211 23.1876 31.1953V32.8125H22.7189C22.0509 32.8125 21.4532 33.0938 21.3126 33.457C21.1368 33.9141 21.1485 58.9102 21.3243 59.4023C21.3946 59.6016 21.547 59.8242 21.6642 59.8828C21.9571 60.0352 30.2775 60.0352 30.5704 59.8828C30.6876 59.8242 30.84 59.6016 30.9103 59.4023C31.086 58.9102 31.0978 33.9141 30.922 33.457C30.7814 33.0938 30.1837 32.8125 29.5157 32.8125H29.047V31.1953C29.0353 30.0703 29.0001 29.5312 28.8829 29.3906C28.6837 29.1328 28.1915 28.9453 27.6876 28.9453H27.2892L27.5821 28.3594C28.2032 27.1406 29.1056 26.4727 30.4532 26.2617C30.9337 26.1797 34.2267 26.1328 39.3126 26.1328C48.1134 26.1328 47.9025 26.1445 49.2618 25.4648C50.0118 25.0781 51.1954 23.8945 51.5821 23.1445C52.2501 21.8086 52.2501 21.8086 52.2501 15.1289C52.2501 10.2305 52.215 8.74219 52.0743 7.88672C51.4532 4.06641 49.4962 1.08984 47.0353 0.222656C46.4142 0.0117188 45.7462 0 26.0939 0C6.57042 0.0117188 5.76182 0.0117188 5.17589 0.222656ZM7.63682 2.17969C8.9962 2.63672 10.3556 4.52344 10.9884 6.83203C11.3751 8.23828 11.4923 9.12891 11.4806 10.7227C11.4689 13.0078 11.0704 14.8008 10.1681 16.5352C8.94932 18.8672 7.19151 19.793 5.55089 18.9492C4.07432 18.1992 2.77354 15.9727 2.2462 13.3008C2.01182 12.1523 1.98839 9.29297 2.19932 8.20312C2.79698 5.09766 4.23839 2.76562 5.93761 2.15625C6.52354 1.94531 6.98057 1.95703 7.63682 2.17969ZM46.1681 2.10938C47.8673 2.57812 49.4259 5.03906 50.0353 8.20312C50.2462 9.29297 50.2228 12.1523 49.9884 13.3008C49.461 15.9727 48.172 18.1758 46.6837 18.9609L46.0978 19.2773L28.4845 19.3125C18.7931 19.3242 10.8829 19.3008 10.9064 19.2539C10.9181 19.1953 11.1876 18.7852 11.4806 18.3398C12.1603 17.3203 12.9103 15.5977 13.2384 14.2969C13.5548 13.043 13.672 9.76172 13.4728 8.29688C13.2032 6.44531 12.4649 4.41797 11.5157 2.97656C11.2696 2.60156 11.0118 2.21484 10.9649 2.13281C10.8478 1.94531 45.4884 1.92188 46.1681 2.10938ZM3.33604 19.9102C3.71104 20.2617 4.36729 20.707 4.78917 20.9062L5.55089 21.2695L11.4454 21.3047L17.3282 21.3398V25.4062C17.3282 29.3906 17.3165 29.4844 17.0587 29.9414C16.7071 30.5742 15.8868 30.9961 15.2071 30.8789C14.6446 30.7852 13.9649 30.2344 13.7423 29.6836C13.6251 29.4258 13.5782 28.7812 13.5782 27.6562V26.0156H12.5821H11.5978L11.5626 32.6016C11.5274 38.6016 11.504 39.2344 11.3282 39.5742C10.836 40.4531 9.66417 40.8047 8.79698 40.3125C8.53917 40.1719 8.22276 39.8555 8.08214 39.6094C7.84776 39.1875 7.83604 39.0234 7.83604 35.0508V30.9375H6.78136H5.72667V32.1094C5.72667 33.4922 5.51573 34.0312 4.84776 34.4531C3.88682 35.0508 2.77354 34.7461 2.2462 33.75L1.97667 33.2461V25.8047V18.3633L2.30479 18.8203C2.49229 19.0664 2.94932 19.5586 3.33604 19.9102ZM27.0548 31.9336V32.8125H26.1173H25.1798V31.9336V31.0547H26.1173H27.0548V31.9336ZM28.9298 46.4648V58.0078H26.1173H23.3048V46.4648V34.9219H26.1173H28.9298V46.4648Z" fill="#625F4E"/>
<path d="M6.48343 7.09869C5.82398 7.3518 5.26908 8.26297 5.05999 9.42725C4.93131 10.1613 5.01977 11.7389 5.22887 12.3126C5.63902 13.4263 6.23413 14 6.99813 14C8.23661 14 9.08907 12.3886 8.99256 10.2287C8.88802 7.98456 7.78625 6.60936 6.48343 7.09869ZM7.30373 8.97166C7.56107 9.56224 7.65758 10.3722 7.56107 11.0977C7.48065 11.6799 7.15897 12.5489 7.01421 12.5489C6.86945 12.5489 6.61211 11.992 6.47539 11.4015C6.27434 10.4903 6.41106 9.32601 6.81316 8.69325C6.99009 8.4064 7.07855 8.45702 7.30373 8.97166Z" fill="#625F4E"/>
<path d="M25.0626 55.1367V56.1328H26.1173H27.172V55.1367V54.1406H26.1173H25.0626V55.1367Z" fill="#625F4E"/>
</svg>
