<svg width="60" height="56" viewBox="0 0 60 56" fill="none" xmlns="http://www.w3.org/2000/svg">
<path d="M37.0664 1.09374L36.7383 1.37499L36.7031 6.42577L36.668 11.4766H18.6445H0.621094L0.304688 11.7226L0 11.957V33.3789V54.8008L0.269531 55.0469C0.84375 55.5859 1.07812 55.4922 4.98047 53.0195C7.125 51.6719 8.64844 50.7812 8.73047 50.8398C8.78906 50.8984 10.125 51.8945 11.6953 53.0664C13.9805 54.7656 14.6133 55.1875 14.9062 55.1875C15.1758 55.1875 16.3477 54.5664 19.125 52.9609C21.2461 51.7305 22.9922 50.7344 23.0273 50.7344C23.0625 50.7344 24.5859 51.7305 26.4258 52.9609C29.0391 54.6953 29.8594 55.1875 30.1523 55.1875C30.4453 55.1875 31.2656 54.6953 33.8672 52.9609C37.1836 50.7578 37.1953 50.7461 37.5 50.9336C37.6641 51.0391 39.1641 52.0352 40.8398 53.1602C43.0898 54.6602 43.9805 55.1875 44.2383 55.1875C44.4961 55.1875 45.5391 54.5781 48.082 52.9492L51.5742 50.7227L55.1016 53.0078C58.0664 54.9414 58.6875 55.3047 59.0508 55.3047C59.3555 55.3047 59.5664 55.2227 59.7422 55.0352L60 54.7656V33.3672V11.957L59.6953 11.7226C59.3906 11.4883 59.25 11.4766 55.8281 11.4766H52.2656V6.44921C52.2656 1.67968 52.2539 1.41015 52.043 1.15234L51.8203 0.871086L44.6133 0.83593L37.4062 0.812492L37.0664 1.09374ZM50.2734 4.26952V5.61718H44.5312H38.7891V4.26952V2.92187H44.5312H50.2734V4.26952ZM50.2734 9.1328V10.5391H47.6602H45.0352L44.7656 10.832C44.3789 11.2539 44.4023 11.8984 44.8242 12.2617C45.1172 12.5195 45.1992 12.5312 47.707 12.5312H50.2734V17.9453V23.3711L47.4141 24.3672C45.832 24.9062 44.5195 25.3516 44.4727 25.3516C44.4375 25.3516 43.1367 24.8945 41.5898 24.3555L38.7891 23.3711V20.3476V17.3359H41.3906C43.8984 17.3359 44.0039 17.3242 44.2617 17.0781C44.6367 16.7266 44.6367 16.0234 44.2383 15.6367L43.957 15.3437H41.3672H38.7891V11.5351V7.72655H44.5312H50.2734V9.1328ZM14.4141 19.1523C14.4141 22.2812 14.4023 24.8359 14.3789 24.8359C14.3555 24.8359 13.1602 24.2852 11.707 23.6055C10.1602 22.8789 8.92969 22.375 8.71875 22.375C8.49609 22.375 7.125 22.9492 5.21484 23.8398C3.48047 24.6484 2.05078 25.3047 2.02734 25.3047C2.00391 25.3047 1.99219 22.6445 1.99219 19.3867V13.4687H8.20312H14.4141V19.1523ZM28.9453 19.1641C28.9453 23.6758 28.9102 24.8477 28.8047 24.8008C28.7227 24.7656 27.5039 24.2031 26.1094 23.5586C24.6914 22.8906 23.4141 22.375 23.2266 22.375C23.0273 22.375 21.5859 22.9844 19.8516 23.793C18.1758 24.5664 16.7461 25.2344 16.6758 25.2695C16.5586 25.3164 16.5234 24.0977 16.5234 19.3984V13.4687H22.7344H28.9453V19.1641ZM36.6562 18.0976L36.6211 22.7266L34.1016 23.9102C32.7188 24.5547 31.4648 25.1406 31.3242 25.1992L31.0547 25.3047V19.3867V13.4687H33.8672H36.6797L36.6562 18.0976ZM58.0078 19.1523C58.0078 22.2812 57.9844 24.8359 57.9609 24.8359C57.9375 24.8359 56.7188 24.2852 55.2539 23.6055C53.8008 22.9258 52.5234 22.375 52.4297 22.375C52.2891 22.375 52.2656 21.707 52.2656 17.9219V13.4687H55.1367H58.0078V19.1523ZM12.1875 26.125C13.3125 26.6406 14.2734 27.1211 14.332 27.168C14.3789 27.2148 14.4023 29.0312 14.3906 31.1992L14.3555 35.1484L11.4492 33.2148C9.49219 31.9141 8.4375 31.2812 8.22656 31.2812C8.01562 31.2812 6.97266 31.9023 5.01562 33.2148C3.42188 34.2812 2.08594 35.1484 2.05078 35.1484C2.01562 35.1484 2.00391 33.4492 2.01562 31.375L2.05078 27.6016L5.36719 26.0547L8.69531 24.5078L9.41016 24.8359C9.80859 25.0117 11.0625 25.5977 12.1875 26.125ZM25.9688 25.7852C27.5156 26.5 28.8047 27.1211 28.8633 27.168C28.9102 27.2148 28.9336 29.0312 28.9219 31.1992L28.8867 35.1484L25.9805 33.2148C23.8711 31.8086 22.9805 31.2812 22.7344 31.2812C22.4766 31.2812 21.6094 31.8086 19.5234 33.2148C17.9414 34.2812 16.6289 35.1484 16.582 35.1484C16.5469 35.1484 16.5352 33.4492 16.5469 31.375L16.582 27.6016L19.8633 26.0547C21.668 25.1992 23.1562 24.5078 23.1562 24.4961C23.168 24.4844 24.4336 25.0703 25.9688 25.7852ZM57.3984 26.8867L58.0078 27.168V31.1523C58.0078 33.3555 57.9844 35.1484 57.9492 35.1484C57.9141 35.1484 56.5781 34.2812 54.9844 33.2148C53.0273 31.9023 51.9844 31.2812 51.7734 31.2812C51.5625 31.2812 50.5078 31.9141 48.5508 33.2148L45.6445 35.1484L45.6094 31.1992C45.5977 29.0312 45.6094 27.2383 45.6328 27.2148C45.6562 27.1797 47.0508 26.6875 48.7148 26.1016C50.625 25.4336 51.8438 24.9531 52.0195 24.7773L52.2891 24.5078L54.5391 25.5625C55.7695 26.1484 57.0586 26.7461 57.3984 26.8867ZM40.5234 26.1836L43.4766 27.2148V31.1758C43.4766 33.3672 43.4414 35.1484 43.4062 35.1484C43.3711 35.1484 42.0586 34.2812 40.4766 33.2148C38.3906 31.7969 37.5234 31.2812 37.2656 31.2812C37.0195 31.2812 36.1523 31.7969 34.1367 33.1328C32.6016 34.1523 31.2773 35.0195 31.207 35.0781C31.0898 35.1484 31.0547 34.375 31.0547 31.375L31.0664 27.5898L34.0195 26.2305C36.7031 24.9883 36.9961 24.8711 37.2656 25C37.4297 25.082 38.8945 25.6094 40.5234 26.1836ZM11.4141 35.6758L14.4141 37.668V42.5195V47.3594L14.0977 47.1484C13.9102 47.0312 12.7148 46.1758 11.4258 45.2383C9.46875 43.8203 9.01172 43.5391 8.67188 43.5391C8.34375 43.5273 7.66406 43.9023 5.27344 45.4141C3.63281 46.457 2.21484 47.3359 2.14453 47.3828C2.02734 47.4531 1.99219 46.457 1.99219 42.6016V37.7266L5.07422 35.6758C6.76172 34.5508 8.20312 33.6367 8.27344 33.6484C8.35547 33.6719 9.76172 34.5742 11.4141 35.6758ZM25.8984 35.6641L28.8867 37.6914L28.9219 42.4023L28.9453 47.1016L26.3086 45.3437C24.8555 44.3711 23.5078 43.5508 23.3203 43.5156C23.0273 43.457 22.5234 43.7031 20.0156 45.168C18.3867 46.1289 16.9336 46.9844 16.793 47.0781L16.5234 47.2422V42.4844V37.7266L19.5469 35.6875C21.1992 34.5742 22.6406 33.6484 22.7344 33.6484C22.8281 33.6367 24.2578 34.5508 25.8984 35.6641ZM40.4648 35.7109L43.4766 37.7266V42.5312V47.3359L41.0508 45.7187C37.6758 43.4687 37.5703 43.4102 37.1016 43.5508C36.9023 43.6094 35.4609 44.5234 33.8906 45.5664L31.0547 47.4531L31.0781 42.5781L31.1133 37.6914L34.1016 35.6641C35.7422 34.5391 37.1719 33.6367 37.2656 33.6602C37.3594 33.6719 38.8008 34.5977 40.4648 35.7109ZM54.9961 35.7227L58.0078 37.7266V42.6016C58.0078 46.4922 57.9727 47.4648 57.8672 47.3711C57.7852 47.3125 56.4258 46.4219 54.8555 45.4023C52.5 43.8672 51.9141 43.5273 51.5742 43.5391C51.2461 43.5391 50.8477 43.7383 49.7461 44.4766C48.9727 45.0039 47.7188 45.8242 46.9688 46.3164L45.5859 47.207V42.4375L45.5977 37.668L48.6094 35.6523C50.2617 34.5391 51.7031 33.6484 51.7969 33.6719C51.9023 33.6953 53.3438 34.6094 54.9961 35.7227ZM30.2578 50.2656C30.4805 50.2656 31.6406 49.5625 33.9258 48.0391C35.7656 46.8086 37.3008 45.8125 37.3359 45.8125C37.3711 45.8125 38.918 46.8086 40.7695 48.0391C42.9492 49.4805 44.25 50.2656 44.4375 50.2656C44.6367 50.2656 45.9258 49.4922 48.0586 48.0742C49.8867 46.8789 51.4688 45.8828 51.5625 45.8828C51.6562 45.8711 53.1445 46.7852 54.8789 47.9102L58.0078 49.9492V51.168V52.3984L57.5742 52.1289C57.3281 51.9766 55.9805 51.0977 54.5625 50.1836C52.4531 48.8008 51.9258 48.5078 51.5742 48.5078C51.2227 48.5078 50.5547 48.8945 47.707 50.7227L44.25 52.9375L40.9336 50.7227C38.2266 48.9062 37.5469 48.5078 37.2188 48.5078C36.8789 48.5078 36.1992 48.9062 33.4805 50.7227L30.1523 52.9375L26.8242 50.7227C24.0938 48.9062 23.4258 48.5078 23.0859 48.5078C22.6641 48.5078 22.4531 48.625 16.8516 51.8711L15.0117 52.9375L12.0586 50.7227C9.46875 48.7891 9.04688 48.5078 8.67188 48.5078C8.32031 48.5078 7.69922 48.8477 5.17969 50.4414C3.49219 51.5078 2.08594 52.375 2.05078 52.375C2.01562 52.375 1.99219 51.8359 1.99219 51.168V49.9609L5.22656 47.9102C7.00781 46.7852 8.50781 45.8594 8.56641 45.8359C8.61328 45.8125 10.0078 46.7852 11.6602 47.9805C13.582 49.375 14.8125 50.1836 15.0469 50.2187C15.3516 50.2773 15.9492 49.9609 19.1602 48.0977C21.2227 46.8906 22.957 45.8594 23.0156 45.8125C23.0742 45.7539 24.6562 46.7383 26.5312 47.9922C28.8633 49.5508 30.0352 50.2656 30.2578 50.2656Z" fill="#625F4E"/>
</svg>
