<svg width="62" height="62" viewBox="0 0 62 62" fill="none" xmlns="http://www.w3.org/2000/svg">
<path d="M23.5 23.6C24.0523 23.6 24.5 23.1523 24.5 22.6C24.5 22.0477 24.0523 21.6 23.5 21.6V23.6ZM33.1506 21.6114C32.6046 21.5282 32.0946 21.9034 32.0114 22.4494C31.9282 22.9954 32.3034 23.5054 32.8494 23.5886L33.1506 21.6114ZM45.874 34.6L46.6102 33.9233L45.874 34.6ZM45.3613 42.76C45.3613 42.2077 44.9136 41.76 44.3613 41.76C43.8091 41.76 43.3613 42.2077 43.3613 42.76H45.3613ZM50.4118 47.56L49.6462 48.2033V48.2033L50.4118 47.56ZM58.9693 47.4555C58.9116 46.9063 58.4196 46.5078 57.8703 46.5655C57.3211 46.6232 56.9226 47.1152 56.9803 47.6645L58.9693 47.4555ZM18.6471 23.6356L18.8565 24.6134L18.6471 23.6356ZM38.3593 42.0671L37.4486 42.48L38.3593 42.0671ZM27.3174 21.7345L26.406 21.323L27.3174 21.7345ZM18.1372 42.0685L19.0487 42.48L18.1372 42.0685ZM28.2269 46.56H25.6975V48.56H28.2269V46.56ZM23.6975 48.56V60H25.6975V48.56H23.6975ZM25.6975 62H30.2521V60H25.6975V62ZM32.2521 60V48.56H30.2521V60H32.2521ZM30.2521 46.56H28.2269V48.56H30.2521V46.56ZM27.2269 39.4V43.48H29.2269V39.4H27.2269ZM27.2269 43.48V47.56H29.2269V43.48H27.2269ZM28.2269 42.48H19.0487V44.48H28.2269V42.48ZM19.0487 42.48L28.2289 22.1459L26.406 21.323L17.2258 41.657L19.0487 42.48ZM28.2289 22.1459L37.4486 42.48L39.2701 41.6541L30.0504 21.32L28.2289 22.1459ZM37.4486 42.48H28.2269V44.48H37.4486V42.48ZM45.1377 35.2767C51.1021 41.7659 58.3365 41.4127 61.3362 40.3418L60.6638 38.4582C58.2854 39.3073 51.94 39.7221 46.6102 33.9233L45.1377 35.2767ZM43.3613 42.76C43.3613 44.4532 43.5577 45.673 44.1038 46.4611C44.755 47.401 45.7073 47.4959 46.4071 47.4702C47.8665 47.4167 48.6872 47.0622 49.6462 48.2033L51.1773 46.9167C49.4268 44.8335 47.2224 45.439 46.3339 45.4716C45.8598 45.4889 45.8075 45.4084 45.7477 45.322C45.5827 45.0839 45.3613 44.4268 45.3613 42.76H43.3613ZM49.6462 48.2033C49.9827 48.6038 50.1244 49.0524 50.1818 49.5805C50.2113 49.8519 50.2173 50.1327 50.2183 50.4403C50.2192 50.7304 50.215 51.076 50.2326 51.3952C50.2676 52.0274 50.396 52.8671 51.0846 53.4959C51.7504 54.1039 52.727 54.32 53.9412 54.32V52.32C52.8864 52.32 52.5395 52.1161 52.4332 52.0191C52.3498 51.9429 52.2576 51.7926 52.2296 51.2848C52.2157 51.034 52.2193 50.7721 52.2183 50.434C52.2173 50.1136 52.2115 49.7456 52.1701 49.3645C52.0857 48.5876 51.8493 47.7162 51.1773 46.9167L49.6462 48.2033ZM53.9412 54.32C55.07 54.32 56.0077 54 56.7555 53.4513C57.4924 52.9106 57.9919 52.1876 58.3257 51.4544C58.9816 50.0138 59.067 48.3858 58.9693 47.4555L56.9803 47.6645C57.0506 48.3342 56.9787 49.5862 56.5055 50.6256C56.2747 51.1324 55.9667 51.5494 55.5724 51.8387C55.189 52.12 54.6718 52.32 53.9412 52.32V54.32ZM0.378495 23.3834C2.5575 25.1121 5.80754 25.6827 9.07546 25.7185C12.3863 25.7547 15.9219 25.2421 18.8565 24.6134L18.4376 22.6578C15.588 23.2683 12.2094 23.7526 9.09734 23.7186C5.94242 23.6841 3.26103 23.1173 1.62151 21.8166L0.378495 23.3834ZM18.8565 24.6134C19.6588 24.4416 20.5469 24.1558 21.2774 23.9591C22.0582 23.7488 22.7837 23.6 23.5 23.6V21.6C22.5188 21.6 21.5918 21.8032 20.7574 22.0279C19.8728 22.2661 19.1831 22.4981 18.4376 22.6578L18.8565 24.6134ZM17.6471 15.4V23.6356H19.6471V15.4H17.6471ZM43.3613 15.4V29.32H45.3613V15.4H43.3613ZM32.8494 23.5886C37.2423 24.2577 39.1715 25.1402 40.1331 26.0465C41.0768 26.936 41.213 27.916 41.6826 29.5901L43.6083 29.0499C43.2202 27.6664 42.9575 25.9602 41.5048 24.5911C40.07 23.2387 37.6054 22.29 33.1506 21.6114L32.8494 23.5886ZM41.6826 29.5901C42.0934 31.0546 42.9378 32.8832 45.1377 35.2767L46.6102 33.9233C44.6018 31.7382 43.926 30.1824 43.6083 29.0499L41.6826 29.5901ZM44.3613 28.32H42.6455V30.32H44.3613V28.32ZM61 28.32H44.3613V30.32H61V28.32ZM18.6471 16.4H31V14.4H18.6471V16.4ZM31 16.4H44.3613V14.4H31V16.4ZM30 1V15.4H32V1H30ZM1 2H8.56303V0H1V2ZM8.56303 2H31V0H8.56303V2ZM1 16.4H8.56303V14.4H1V16.4ZM8.56303 16.4H18.6471V14.4H8.56303V16.4ZM7.56303 1V15.4H9.56303V1H7.56303ZM31 2H53.9412V0H31V2ZM53.9412 2H61V0H53.9412V2ZM44.3613 16.4H53.9412V14.4H44.3613V16.4ZM53.9412 16.4H61V14.4H53.9412V16.4ZM52.9412 1V15.4H54.9412V1H52.9412ZM37.4486 42.48V44.48C38.9024 44.48 39.8704 42.9781 39.2701 41.6541L37.4486 42.48ZM28.2289 22.1459V22.1459L30.0504 21.32C29.3399 19.7532 27.1139 19.755 26.406 21.323L28.2289 22.1459ZM32.2521 48.56C32.2521 47.4554 31.3567 46.56 30.2521 46.56V48.56H32.2521ZM30.2521 62C31.3567 62 32.2521 61.1046 32.2521 60H30.2521V62ZM23.6975 60C23.6975 61.1046 24.5929 62 25.6975 62V60H23.6975ZM19.0487 42.48H19.0487L17.2258 41.657C16.6282 42.9808 17.5963 44.48 19.0487 44.48V42.48ZM25.6975 46.56C24.5929 46.56 23.6975 47.4554 23.6975 48.56H25.6975V46.56Z" fill="#625F4E"/>
<path d="M4.5 33C7.5 38.5 7.5 31 11 37.5C12.5638 40.4042 16 34 15 33" stroke="#625F4E" stroke-width="2" stroke-linecap="round"/>
</svg>
