<svg width="46" height="60" viewBox="0 0 46 60" fill="none" xmlns="http://www.w3.org/2000/svg">
<path d="M19.3672 0.234379C16.2383 0.714848 13.7539 1.5586 11.1992 3C5.57424 6.17579 1.8594 11.2852 0.417994 17.8242L0.0898689 19.2773L0.0547126 39.3633C0.0312751 57.3281 0.0429939 59.4727 0.207056 59.7188L0.382838 60H23H45.6172L45.793 59.7188C45.9571 59.4727 45.9688 57.3281 45.9453 39.3633L45.9102 19.2773L45.6524 18.1289C44.5742 13.418 42.6172 9.8086 39.4063 6.58594C35.8672 3.04688 31.6133 0.949223 26.3633 0.187504C24.6289 -0.0703087 21.1602 -0.0468712 19.3672 0.234379ZM25.7539 2.05079C30.6524 2.74219 34.9883 4.88672 38.3985 8.27344C41.5742 11.4375 43.5196 15.4453 44.0821 20.0391C44.1641 20.6953 44.211 27.3164 44.211 39.6328V58.2422H23.1172H2.02346L2.05862 38.8125C2.08206 20.6133 2.10549 19.3359 2.30471 18.3984C3.68753 11.8594 7.50784 6.9375 13.4141 4.06641C15.6055 3 17.5039 2.41407 19.9883 2.0625C21.4414 1.85157 24.3125 1.83985 25.7539 2.05079Z" fill="#625F4E"/>
<path d="M20.0704 4.27737C14.4102 5.25003 9.6993 8.39065 6.73445 13.1836C5.22273 15.6563 4.29695 18.4102 4.0157 21.3867C3.8868 22.7696 3.83992 55.1602 3.96883 55.6407C4.14461 56.2852 3.18367 56.25 23.047 56.25C36.7579 56.25 41.4688 56.2149 41.6915 56.1094C41.879 56.0274 42.0313 55.8164 42.1134 55.5586C42.1954 55.2657 42.2188 49.8516 42.1837 38.1446C42.1485 21.3633 42.1368 21.1407 41.8907 19.8399C41.129 15.8789 39.336 12.4688 36.5352 9.668C33.5587 6.69143 30.1485 4.96878 25.9298 4.27737C24.5821 4.06644 21.3477 4.06644 20.0704 4.27737ZM22.0626 13.3008C22.0626 17.3321 22.0391 20.625 22.004 20.625C21.8985 20.625 11.9845 10.1367 12.0196 10.043C12.0899 9.82034 14.2462 8.39066 15.3243 7.86331C17.4337 6.80862 19.9884 6.07034 21.7462 5.98831L22.0626 5.97659V13.3008ZM26.504 6.28128C27.8282 6.56253 29.1524 6.99612 30.336 7.57034C31.3907 8.06253 33.172 9.19925 33.8282 9.78518L34.1563 10.0899L33.3477 10.9336C32.9024 11.4024 30.629 13.793 28.2852 16.2539C25.9415 18.7266 24.0079 20.7422 23.9845 20.7422C23.961 20.7422 23.9376 17.4141 23.9376 13.3477V5.94144L24.7696 6.02347C25.2384 6.05862 26.0118 6.17581 26.504 6.28128ZM14.3868 15.5508C16.5196 17.7891 18.8282 20.2149 19.5313 20.9414L20.797 22.2657H13.297H5.78523L5.84383 21.8203C6.27742 18.5039 7.21492 15.9141 8.8907 13.4649C9.54695 12.4922 10.3438 11.4961 10.461 11.4844C10.4962 11.4844 12.2657 13.3125 14.3868 15.5508ZM36.8751 12.9492C37.7188 14.086 38.1173 14.7657 38.668 15.9961C39.4532 17.7305 39.9923 19.8164 40.1446 21.6446L40.1915 22.2657H32.7501H25.3087L26.1759 21.3516C26.6563 20.8594 28.9649 18.4336 31.3087 15.961L35.5743 11.4727L35.9259 11.8008C36.1134 11.9766 36.547 12.4922 36.8751 12.9492ZM22.0626 31.2305V38.3203H13.918H5.77351V31.2305V24.1407H13.918H22.0626V31.2305ZM40.2266 31.2305V38.3203H32.0821H23.9376V31.2305V24.1407H32.0821H40.2266V31.2305ZM22.0626 47.2852V54.375H13.918H5.77351V47.2852V40.1953H13.918H22.0626V47.2852ZM40.2266 47.2852V54.375H32.0821H23.9376V47.2852V40.1953H32.0821H40.2266V47.2852Z" fill="#625F4E"/>
</svg>
