<svg width="16" height="22" viewBox="0 0 16 22" fill="none" xmlns="http://www.w3.org/2000/svg">
<mask id="path-1-outside-1_252_178" maskUnits="userSpaceOnUse" x="0" y="0" width="16" height="22" fill="black">
<rect fill="white" width="16" height="22"/>
<path d="M6.93831 1.05767C3.88091 1.53432 1.51979 3.92541 1.0569 7.00413C0.979102 7.50423 0.982991 8.5474 1.0569 9.07875C1.22416 10.2157 1.60147 11.3526 2.28219 12.7357C3.04849 14.2985 3.83812 15.5488 5.93862 18.5181C6.42485 19.2057 6.98888 20.0145 7.19504 20.3153C7.40509 20.624 7.61903 20.8935 7.68515 20.9326C7.83297 21.0225 8.16749 21.0225 8.31531 20.9326C8.38143 20.8935 8.59537 20.624 8.80542 20.3153C9.01158 20.0145 9.57561 19.2057 10.0618 18.5181C12.1623 15.5488 12.952 14.2985 13.7183 12.7357C14.399 11.3487 14.7724 10.2313 14.9397 9.07875C15.0175 8.54349 15.0214 7.50813 14.9436 6.99631C14.4807 3.90197 12.104 1.51869 9.01936 1.05376C8.54869 0.979526 7.40509 0.983433 6.93831 1.05767ZM8.89489 2.26493C11.2443 2.61656 13.1698 4.46067 13.6988 6.85566C13.7377 7.03929 13.7727 7.41436 13.7844 7.85195C13.8 8.45363 13.7922 8.62554 13.7222 9.04359C13.5082 10.3134 12.9481 11.7277 11.999 13.3804C11.326 14.5564 10.5364 15.7441 8.82098 18.1664C8.40866 18.7447 8.05469 19.2487 8.03524 19.2799C8.00412 19.3307 7.99634 19.3307 7.96522 19.2799C7.94577 19.2487 7.5918 18.7447 7.17948 18.1664C5.46407 15.7441 4.67443 14.5564 4.00149 13.3804C3.05238 11.7277 2.49224 10.3134 2.2783 9.04359C2.20829 8.62554 2.20051 8.45363 2.21606 7.85195C2.22773 7.41436 2.26274 7.03929 2.30164 6.85566C2.69062 5.0936 3.84201 3.60113 5.4135 2.81191C6.5221 2.25712 7.65793 2.0813 8.89489 2.26493Z"/>
</mask>
<path d="M6.93831 1.05767C3.88091 1.53432 1.51979 3.92541 1.0569 7.00413C0.979102 7.50423 0.982991 8.5474 1.0569 9.07875C1.22416 10.2157 1.60147 11.3526 2.28219 12.7357C3.04849 14.2985 3.83812 15.5488 5.93862 18.5181C6.42485 19.2057 6.98888 20.0145 7.19504 20.3153C7.40509 20.624 7.61903 20.8935 7.68515 20.9326C7.83297 21.0225 8.16749 21.0225 8.31531 20.9326C8.38143 20.8935 8.59537 20.624 8.80542 20.3153C9.01158 20.0145 9.57561 19.2057 10.0618 18.5181C12.1623 15.5488 12.952 14.2985 13.7183 12.7357C14.399 11.3487 14.7724 10.2313 14.9397 9.07875C15.0175 8.54349 15.0214 7.50813 14.9436 6.99631C14.4807 3.90197 12.104 1.51869 9.01936 1.05376C8.54869 0.979526 7.40509 0.983433 6.93831 1.05767ZM8.89489 2.26493C11.2443 2.61656 13.1698 4.46067 13.6988 6.85566C13.7377 7.03929 13.7727 7.41436 13.7844 7.85195C13.8 8.45363 13.7922 8.62554 13.7222 9.04359C13.5082 10.3134 12.9481 11.7277 11.999 13.3804C11.326 14.5564 10.5364 15.7441 8.82098 18.1664C8.40866 18.7447 8.05469 19.2487 8.03524 19.2799C8.00412 19.3307 7.99634 19.3307 7.96522 19.2799C7.94577 19.2487 7.5918 18.7447 7.17948 18.1664C5.46407 15.7441 4.67443 14.5564 4.00149 13.3804C3.05238 11.7277 2.49224 10.3134 2.2783 9.04359C2.20829 8.62554 2.20051 8.45363 2.21606 7.85195C2.22773 7.41436 2.26274 7.03929 2.30164 6.85566C2.69062 5.0936 3.84201 3.60113 5.4135 2.81191C6.5221 2.25712 7.65793 2.0813 8.89489 2.26493Z" fill="white"/>
<path d="M6.93831 1.05767C3.88091 1.53432 1.51979 3.92541 1.0569 7.00413C0.979102 7.50423 0.982991 8.5474 1.0569 9.07875C1.22416 10.2157 1.60147 11.3526 2.28219 12.7357C3.04849 14.2985 3.83812 15.5488 5.93862 18.5181C6.42485 19.2057 6.98888 20.0145 7.19504 20.3153C7.40509 20.624 7.61903 20.8935 7.68515 20.9326C7.83297 21.0225 8.16749 21.0225 8.31531 20.9326C8.38143 20.8935 8.59537 20.624 8.80542 20.3153C9.01158 20.0145 9.57561 19.2057 10.0618 18.5181C12.1623 15.5488 12.952 14.2985 13.7183 12.7357C14.399 11.3487 14.7724 10.2313 14.9397 9.07875C15.0175 8.54349 15.0214 7.50813 14.9436 6.99631C14.4807 3.90197 12.104 1.51869 9.01936 1.05376C8.54869 0.979526 7.40509 0.983433 6.93831 1.05767ZM8.89489 2.26493C11.2443 2.61656 13.1698 4.46067 13.6988 6.85566C13.7377 7.03929 13.7727 7.41436 13.7844 7.85195C13.8 8.45363 13.7922 8.62554 13.7222 9.04359C13.5082 10.3134 12.9481 11.7277 11.999 13.3804C11.326 14.5564 10.5364 15.7441 8.82098 18.1664C8.40866 18.7447 8.05469 19.2487 8.03524 19.2799C8.00412 19.3307 7.99634 19.3307 7.96522 19.2799C7.94577 19.2487 7.5918 18.7447 7.17948 18.1664C5.46407 15.7441 4.67443 14.5564 4.00149 13.3804C3.05238 11.7277 2.49224 10.3134 2.2783 9.04359C2.20829 8.62554 2.20051 8.45363 2.21606 7.85195C2.22773 7.41436 2.26274 7.03929 2.30164 6.85566C2.69062 5.0936 3.84201 3.60113 5.4135 2.81191C6.5221 2.25712 7.65793 2.0813 8.89489 2.26493Z" stroke="white" stroke-width="0.4" mask="url(#path-1-outside-1_252_178)"/>
<mask id="path-2-outside-2_252_178" maskUnits="userSpaceOnUse" x="3.49355" y="3.54993" width="9" height="9" fill="black">
<rect fill="white" x="3.49355" y="3.54993" width="9" height="9"/>
<path d="M7.11724 4.60913C5.87638 4.92951 4.90782 5.91016 4.59274 7.1565C4.46049 7.68395 4.46049 8.37158 4.59274 8.89902C4.91171 10.1532 5.88416 11.1299 7.1328 11.4503C7.65792 11.5831 8.34253 11.5831 8.86766 11.4503C10.1163 11.1299 11.0887 10.1532 11.4077 8.89902C11.54 8.37158 11.54 7.68395 11.4077 7.1565C11.0887 5.89844 10.1202 4.9256 8.86766 4.60522C8.34642 4.47239 7.63458 4.47629 7.11724 4.60913ZM8.68095 5.8203C9.42001 6.04691 10.0346 6.69547 10.2369 7.46125C10.3108 7.75818 10.3108 8.29734 10.2369 8.59428C10.093 9.14126 9.71564 9.66089 9.2333 9.98126C8.67317 10.3485 7.92243 10.4462 7.29228 10.2274C6.88385 10.0868 6.58822 9.8875 6.29649 9.56712C5.89194 9.12563 5.70523 8.63335 5.70523 8.00432C5.70523 6.68375 6.84884 5.62105 8.17527 5.71481C8.28418 5.72263 8.50979 5.76951 8.68095 5.8203Z"/>
</mask>
<path d="M7.11724 4.60913C5.87638 4.92951 4.90782 5.91016 4.59274 7.1565C4.46049 7.68395 4.46049 8.37158 4.59274 8.89902C4.91171 10.1532 5.88416 11.1299 7.1328 11.4503C7.65792 11.5831 8.34253 11.5831 8.86766 11.4503C10.1163 11.1299 11.0887 10.1532 11.4077 8.89902C11.54 8.37158 11.54 7.68395 11.4077 7.1565C11.0887 5.89844 10.1202 4.9256 8.86766 4.60522C8.34642 4.47239 7.63458 4.47629 7.11724 4.60913ZM8.68095 5.8203C9.42001 6.04691 10.0346 6.69547 10.2369 7.46125C10.3108 7.75818 10.3108 8.29734 10.2369 8.59428C10.093 9.14126 9.71564 9.66089 9.2333 9.98126C8.67317 10.3485 7.92243 10.4462 7.29228 10.2274C6.88385 10.0868 6.58822 9.8875 6.29649 9.56712C5.89194 9.12563 5.70523 8.63335 5.70523 8.00432C5.70523 6.68375 6.84884 5.62105 8.17527 5.71481C8.28418 5.72263 8.50979 5.76951 8.68095 5.8203Z" fill="white"/>
<path d="M7.11724 4.60913C5.87638 4.92951 4.90782 5.91016 4.59274 7.1565C4.46049 7.68395 4.46049 8.37158 4.59274 8.89902C4.91171 10.1532 5.88416 11.1299 7.1328 11.4503C7.65792 11.5831 8.34253 11.5831 8.86766 11.4503C10.1163 11.1299 11.0887 10.1532 11.4077 8.89902C11.54 8.37158 11.54 7.68395 11.4077 7.1565C11.0887 5.89844 10.1202 4.9256 8.86766 4.60522C8.34642 4.47239 7.63458 4.47629 7.11724 4.60913ZM8.68095 5.8203C9.42001 6.04691 10.0346 6.69547 10.2369 7.46125C10.3108 7.75818 10.3108 8.29734 10.2369 8.59428C10.093 9.14126 9.71564 9.66089 9.2333 9.98126C8.67317 10.3485 7.92243 10.4462 7.29228 10.2274C6.88385 10.0868 6.58822 9.8875 6.29649 9.56712C5.89194 9.12563 5.70523 8.63335 5.70523 8.00432C5.70523 6.68375 6.84884 5.62105 8.17527 5.71481C8.28418 5.72263 8.50979 5.76951 8.68095 5.8203Z" stroke="white" stroke-width="0.4" mask="url(#path-2-outside-2_252_178)"/>
</svg>
