<svg width="19" height="27" viewBox="0 0 19 27" fill="none" xmlns="http://www.w3.org/2000/svg">
<mask id="path-1-outside-1_306_319" maskUnits="userSpaceOnUse" x="0" y="0" width="19" height="27" fill="black">
<rect fill="white" width="19" height="27"/>
<path d="M8.42289 1.07208C4.60114 1.6679 1.64973 4.65676 1.07112 8.50516C0.973877 9.13028 0.978739 10.4342 1.07112 11.0984C1.2802 12.5196 1.75184 13.9408 2.60274 15.6696C3.56061 17.6231 4.54765 19.1859 7.17328 22.8976C7.78107 23.7571 8.4861 24.7681 8.7438 25.1441C9.00636 25.5299 9.27378 25.8669 9.35644 25.9158C9.54121 26.0281 9.95937 26.0281 10.1441 25.9158C10.2268 25.8669 10.4942 25.5299 10.7568 25.1441C11.0145 24.7681 11.7195 23.7571 12.3273 22.8976C14.9529 19.1859 15.94 17.6231 16.8978 15.6696C17.7487 13.9359 18.2155 12.5391 18.4246 11.0984C18.5218 10.4294 18.5267 9.13517 18.4295 8.49539C17.8508 4.62746 14.88 1.64837 11.0242 1.0672C10.4359 0.974409 9.00636 0.979292 8.42289 1.07208ZM10.8686 2.58117C13.8054 3.0207 16.2123 5.32584 16.8735 8.31958C16.9221 8.54912 16.9659 9.01796 16.9805 9.56494C16.9999 10.317 16.9902 10.5319 16.9027 11.0545C16.6353 12.6417 15.9351 14.4096 14.7487 16.4755C13.9075 17.9455 12.9205 19.4301 10.7762 22.4581C10.2608 23.1809 9.81836 23.8109 9.79405 23.8499C9.75515 23.9134 9.74543 23.9134 9.70653 23.8499C9.68222 23.8109 9.23975 23.1809 8.72435 22.4581C6.58008 19.4301 5.59304 17.9455 4.75187 16.4755C3.56547 14.4096 2.8653 12.6417 2.59788 11.0545C2.51036 10.5319 2.50063 10.317 2.52008 9.56494C2.53467 9.01796 2.57843 8.54912 2.62705 8.31958C3.11328 6.117 4.55251 4.25141 6.51687 3.26489C7.90262 2.5714 9.32241 2.35163 10.8686 2.58117Z"/>
</mask>
<path d="M8.42289 1.07208C4.60114 1.6679 1.64973 4.65676 1.07112 8.50516C0.973877 9.13028 0.978739 10.4342 1.07112 11.0984C1.2802 12.5196 1.75184 13.9408 2.60274 15.6696C3.56061 17.6231 4.54765 19.1859 7.17328 22.8976C7.78107 23.7571 8.4861 24.7681 8.7438 25.1441C9.00636 25.5299 9.27378 25.8669 9.35644 25.9158C9.54121 26.0281 9.95937 26.0281 10.1441 25.9158C10.2268 25.8669 10.4942 25.5299 10.7568 25.1441C11.0145 24.7681 11.7195 23.7571 12.3273 22.8976C14.9529 19.1859 15.94 17.6231 16.8978 15.6696C17.7487 13.9359 18.2155 12.5391 18.4246 11.0984C18.5218 10.4294 18.5267 9.13517 18.4295 8.49539C17.8508 4.62746 14.88 1.64837 11.0242 1.0672C10.4359 0.974409 9.00636 0.979292 8.42289 1.07208ZM10.8686 2.58117C13.8054 3.0207 16.2123 5.32584 16.8735 8.31958C16.9221 8.54912 16.9659 9.01796 16.9805 9.56494C16.9999 10.317 16.9902 10.5319 16.9027 11.0545C16.6353 12.6417 15.9351 14.4096 14.7487 16.4755C13.9075 17.9455 12.9205 19.4301 10.7762 22.4581C10.2608 23.1809 9.81836 23.8109 9.79405 23.8499C9.75515 23.9134 9.74543 23.9134 9.70653 23.8499C9.68222 23.8109 9.23975 23.1809 8.72435 22.4581C6.58008 19.4301 5.59304 17.9455 4.75187 16.4755C3.56547 14.4096 2.8653 12.6417 2.59788 11.0545C2.51036 10.5319 2.50063 10.317 2.52008 9.56494C2.53467 9.01796 2.57843 8.54912 2.62705 8.31958C3.11328 6.117 4.55251 4.25141 6.51687 3.26489C7.90262 2.5714 9.32241 2.35163 10.8686 2.58117Z" fill="white"/>
<path d="M8.42289 1.07208C4.60114 1.6679 1.64973 4.65676 1.07112 8.50516C0.973877 9.13028 0.978739 10.4342 1.07112 11.0984C1.2802 12.5196 1.75184 13.9408 2.60274 15.6696C3.56061 17.6231 4.54765 19.1859 7.17328 22.8976C7.78107 23.7571 8.4861 24.7681 8.7438 25.1441C9.00636 25.5299 9.27378 25.8669 9.35644 25.9158C9.54121 26.0281 9.95937 26.0281 10.1441 25.9158C10.2268 25.8669 10.4942 25.5299 10.7568 25.1441C11.0145 24.7681 11.7195 23.7571 12.3273 22.8976C14.9529 19.1859 15.94 17.6231 16.8978 15.6696C17.7487 13.9359 18.2155 12.5391 18.4246 11.0984C18.5218 10.4294 18.5267 9.13517 18.4295 8.49539C17.8508 4.62746 14.88 1.64837 11.0242 1.0672C10.4359 0.974409 9.00636 0.979292 8.42289 1.07208ZM10.8686 2.58117C13.8054 3.0207 16.2123 5.32584 16.8735 8.31958C16.9221 8.54912 16.9659 9.01796 16.9805 9.56494C16.9999 10.317 16.9902 10.5319 16.9027 11.0545C16.6353 12.6417 15.9351 14.4096 14.7487 16.4755C13.9075 17.9455 12.9205 19.4301 10.7762 22.4581C10.2608 23.1809 9.81836 23.8109 9.79405 23.8499C9.75515 23.9134 9.74543 23.9134 9.70653 23.8499C9.68222 23.8109 9.23975 23.1809 8.72435 22.4581C6.58008 19.4301 5.59304 17.9455 4.75187 16.4755C3.56547 14.4096 2.8653 12.6417 2.59788 11.0545C2.51036 10.5319 2.50063 10.317 2.52008 9.56494C2.53467 9.01796 2.57843 8.54912 2.62705 8.31958C3.11328 6.117 4.55251 4.25141 6.51687 3.26489C7.90262 2.5714 9.32241 2.35163 10.8686 2.58117Z" stroke="white" stroke-width="0.6" mask="url(#path-1-outside-1_306_319)"/>
<mask id="path-2-outside-2_306_319" maskUnits="userSpaceOnUse" x="4.36694" y="4.18741" width="11" height="11" fill="black">
<rect fill="white" x="4.36694" y="4.18741" width="11" height="11"/>
<path d="M8.64655 5.51141C7.09548 5.91188 5.88478 7.13771 5.49093 8.69562C5.32561 9.35493 5.32561 10.2145 5.49093 10.8738C5.88964 12.4415 7.10521 13.6624 8.666 14.0629C9.32241 14.2289 10.1782 14.2289 10.8346 14.0629C12.3954 13.6624 13.6109 12.4415 14.0096 10.8738C14.175 10.2145 14.175 9.35493 14.0096 8.69562C13.6109 7.12305 12.4002 5.907 10.8346 5.50653C10.183 5.34048 9.29323 5.34537 8.64655 5.51141ZM10.6012 7.02538C11.525 7.30864 12.2933 8.11934 12.5461 9.07656C12.6385 9.44772 12.6385 10.1217 12.5461 10.4928C12.3662 11.1766 11.8946 11.8261 11.2916 12.2266C10.5915 12.6857 9.65304 12.8077 8.86535 12.5343C8.35481 12.3584 7.98528 12.1094 7.62061 11.7089C7.11493 11.157 6.88154 10.5417 6.88154 9.7554C6.88154 8.10469 8.31105 6.77631 9.96909 6.89352C10.1052 6.90329 10.3872 6.96189 10.6012 7.02538Z"/>
</mask>
<path d="M8.64655 5.51141C7.09548 5.91188 5.88478 7.13771 5.49093 8.69562C5.32561 9.35493 5.32561 10.2145 5.49093 10.8738C5.88964 12.4415 7.10521 13.6624 8.666 14.0629C9.32241 14.2289 10.1782 14.2289 10.8346 14.0629C12.3954 13.6624 13.6109 12.4415 14.0096 10.8738C14.175 10.2145 14.175 9.35493 14.0096 8.69562C13.6109 7.12305 12.4002 5.907 10.8346 5.50653C10.183 5.34048 9.29323 5.34537 8.64655 5.51141ZM10.6012 7.02538C11.525 7.30864 12.2933 8.11934 12.5461 9.07656C12.6385 9.44772 12.6385 10.1217 12.5461 10.4928C12.3662 11.1766 11.8946 11.8261 11.2916 12.2266C10.5915 12.6857 9.65304 12.8077 8.86535 12.5343C8.35481 12.3584 7.98528 12.1094 7.62061 11.7089C7.11493 11.157 6.88154 10.5417 6.88154 9.7554C6.88154 8.10469 8.31105 6.77631 9.96909 6.89352C10.1052 6.90329 10.3872 6.96189 10.6012 7.02538Z" fill="white"/>
<path d="M8.64655 5.51141C7.09548 5.91188 5.88478 7.13771 5.49093 8.69562C5.32561 9.35493 5.32561 10.2145 5.49093 10.8738C5.88964 12.4415 7.10521 13.6624 8.666 14.0629C9.32241 14.2289 10.1782 14.2289 10.8346 14.0629C12.3954 13.6624 13.6109 12.4415 14.0096 10.8738C14.175 10.2145 14.175 9.35493 14.0096 8.69562C13.6109 7.12305 12.4002 5.907 10.8346 5.50653C10.183 5.34048 9.29323 5.34537 8.64655 5.51141ZM10.6012 7.02538C11.525 7.30864 12.2933 8.11934 12.5461 9.07656C12.6385 9.44772 12.6385 10.1217 12.5461 10.4928C12.3662 11.1766 11.8946 11.8261 11.2916 12.2266C10.5915 12.6857 9.65304 12.8077 8.86535 12.5343C8.35481 12.3584 7.98528 12.1094 7.62061 11.7089C7.11493 11.157 6.88154 10.5417 6.88154 9.7554C6.88154 8.10469 8.31105 6.77631 9.96909 6.89352C10.1052 6.90329 10.3872 6.96189 10.6012 7.02538Z" stroke="white" stroke-width="0.6" mask="url(#path-2-outside-2_306_319)"/>
</svg>
