<svg width="22" height="22" viewBox="0 0 22 22" fill="none" xmlns="http://www.w3.org/2000/svg">
<mask id="path-1-outside-1_252_189" maskUnits="userSpaceOnUse" x="0" y="-0.00378418" width="22" height="22" fill="black">
<rect fill="white" y="-0.00378418" width="22" height="22"/>
<path d="M4.47271 1.0509C4.20615 1.13684 3.89646 1.30872 3.6299 1.52356C3.22221 1.85559 1.78354 3.33215 1.56009 3.64856C1.33665 3.96497 1.1524 4.40637 1.05832 4.83606C0.979919 5.20715 0.979919 6.14856 1.06224 6.64856C1.32097 8.26184 2.17946 10.254 3.41429 12.129C5.12737 14.7228 7.35006 16.9493 9.81187 18.5275C12.3325 20.1447 14.5905 20.9962 16.3545 20.9962C17.2561 20.9962 17.8441 20.8165 18.4517 20.3595C18.781 20.1134 20.5019 18.34 20.6823 18.0626C20.8979 17.7306 20.9998 17.3829 20.9998 16.9884C21.0037 16.6095 20.9528 16.4142 20.7685 16.0548C20.647 15.8126 20.4549 15.6056 19.1574 14.3009C17.362 12.5001 17.2012 12.379 16.4878 12.3361C16.1114 12.3087 15.8135 12.3712 15.4607 12.5509C15.2137 12.672 15.0569 12.8087 14.2808 13.5704L13.3831 14.4532L13.0459 14.2775C12.2031 13.84 11.1447 13.0431 10.2392 12.1681C9.06705 11.0314 8.16935 9.89465 7.69502 8.94934L7.52254 8.60168L8.3536 7.77747C8.82793 7.30481 9.2513 6.84778 9.34538 6.70325C9.78835 6.03137 9.78835 5.21497 9.34146 4.53918C9.12193 4.20715 6.4406 1.53137 6.10347 1.31653C5.75458 1.08606 5.42921 0.996216 4.98625 1.00012C4.79024 1.00012 4.55896 1.02356 4.47271 1.0509ZM5.39001 2.13684C5.66442 2.26184 8.36536 4.96106 8.5104 5.25012C8.65544 5.53918 8.63976 5.82434 8.45944 6.10168C8.3928 6.20715 7.93807 6.68372 7.45198 7.16418C6.93453 7.6759 6.53076 8.10559 6.48372 8.19543C6.34651 8.46887 6.39356 8.7345 6.69932 9.34778C7.22069 10.3947 7.98511 11.4142 9.13761 12.5939C10.298 13.7853 11.4465 14.6603 12.6579 15.2892C13.1283 15.5314 13.2223 15.5665 13.4066 15.5665C13.5203 15.5665 13.6849 15.5392 13.7672 15.504C13.8692 15.4611 14.2298 15.1368 14.8609 14.5118C15.449 13.9298 15.8684 13.547 15.9782 13.4923C16.2251 13.3634 16.5348 13.3712 16.7661 13.5079C16.8602 13.5626 17.5776 14.2462 18.3577 15.0275C19.8786 16.547 19.9335 16.6173 19.9374 16.9923C19.9374 17.3595 19.8238 17.5197 18.9104 18.4493C17.7383 19.6368 17.6952 19.672 17.1934 19.84C16.6603 20.0157 16.1114 20.0118 15.1785 19.8204C13.5712 19.4923 11.18 18.3009 9.31402 16.8947C6.7542 14.965 4.51975 12.3126 3.21829 9.64856C2.01482 7.18762 1.73649 5.37122 2.40291 4.31653C2.59891 4.00793 4.38647 2.24231 4.60992 2.13684C4.84512 2.02356 5.15481 2.02356 5.39001 2.13684Z"/>
</mask>
<path d="M4.47271 1.0509C4.20615 1.13684 3.89646 1.30872 3.6299 1.52356C3.22221 1.85559 1.78354 3.33215 1.56009 3.64856C1.33665 3.96497 1.1524 4.40637 1.05832 4.83606C0.979919 5.20715 0.979919 6.14856 1.06224 6.64856C1.32097 8.26184 2.17946 10.254 3.41429 12.129C5.12737 14.7228 7.35006 16.9493 9.81187 18.5275C12.3325 20.1447 14.5905 20.9962 16.3545 20.9962C17.2561 20.9962 17.8441 20.8165 18.4517 20.3595C18.781 20.1134 20.5019 18.34 20.6823 18.0626C20.8979 17.7306 20.9998 17.3829 20.9998 16.9884C21.0037 16.6095 20.9528 16.4142 20.7685 16.0548C20.647 15.8126 20.4549 15.6056 19.1574 14.3009C17.362 12.5001 17.2012 12.379 16.4878 12.3361C16.1114 12.3087 15.8135 12.3712 15.4607 12.5509C15.2137 12.672 15.0569 12.8087 14.2808 13.5704L13.3831 14.4532L13.0459 14.2775C12.2031 13.84 11.1447 13.0431 10.2392 12.1681C9.06705 11.0314 8.16935 9.89465 7.69502 8.94934L7.52254 8.60168L8.3536 7.77747C8.82793 7.30481 9.2513 6.84778 9.34538 6.70325C9.78835 6.03137 9.78835 5.21497 9.34146 4.53918C9.12193 4.20715 6.4406 1.53137 6.10347 1.31653C5.75458 1.08606 5.42921 0.996216 4.98625 1.00012C4.79024 1.00012 4.55896 1.02356 4.47271 1.0509ZM5.39001 2.13684C5.66442 2.26184 8.36536 4.96106 8.5104 5.25012C8.65544 5.53918 8.63976 5.82434 8.45944 6.10168C8.3928 6.20715 7.93807 6.68372 7.45198 7.16418C6.93453 7.6759 6.53076 8.10559 6.48372 8.19543C6.34651 8.46887 6.39356 8.7345 6.69932 9.34778C7.22069 10.3947 7.98511 11.4142 9.13761 12.5939C10.298 13.7853 11.4465 14.6603 12.6579 15.2892C13.1283 15.5314 13.2223 15.5665 13.4066 15.5665C13.5203 15.5665 13.6849 15.5392 13.7672 15.504C13.8692 15.4611 14.2298 15.1368 14.8609 14.5118C15.449 13.9298 15.8684 13.547 15.9782 13.4923C16.2251 13.3634 16.5348 13.3712 16.7661 13.5079C16.8602 13.5626 17.5776 14.2462 18.3577 15.0275C19.8786 16.547 19.9335 16.6173 19.9374 16.9923C19.9374 17.3595 19.8238 17.5197 18.9104 18.4493C17.7383 19.6368 17.6952 19.672 17.1934 19.84C16.6603 20.0157 16.1114 20.0118 15.1785 19.8204C13.5712 19.4923 11.18 18.3009 9.31402 16.8947C6.7542 14.965 4.51975 12.3126 3.21829 9.64856C2.01482 7.18762 1.73649 5.37122 2.40291 4.31653C2.59891 4.00793 4.38647 2.24231 4.60992 2.13684C4.84512 2.02356 5.15481 2.02356 5.39001 2.13684Z" fill="white"/>
<path d="M4.47271 1.0509C4.20615 1.13684 3.89646 1.30872 3.6299 1.52356C3.22221 1.85559 1.78354 3.33215 1.56009 3.64856C1.33665 3.96497 1.1524 4.40637 1.05832 4.83606C0.979919 5.20715 0.979919 6.14856 1.06224 6.64856C1.32097 8.26184 2.17946 10.254 3.41429 12.129C5.12737 14.7228 7.35006 16.9493 9.81187 18.5275C12.3325 20.1447 14.5905 20.9962 16.3545 20.9962C17.2561 20.9962 17.8441 20.8165 18.4517 20.3595C18.781 20.1134 20.5019 18.34 20.6823 18.0626C20.8979 17.7306 20.9998 17.3829 20.9998 16.9884C21.0037 16.6095 20.9528 16.4142 20.7685 16.0548C20.647 15.8126 20.4549 15.6056 19.1574 14.3009C17.362 12.5001 17.2012 12.379 16.4878 12.3361C16.1114 12.3087 15.8135 12.3712 15.4607 12.5509C15.2137 12.672 15.0569 12.8087 14.2808 13.5704L13.3831 14.4532L13.0459 14.2775C12.2031 13.84 11.1447 13.0431 10.2392 12.1681C9.06705 11.0314 8.16935 9.89465 7.69502 8.94934L7.52254 8.60168L8.3536 7.77747C8.82793 7.30481 9.2513 6.84778 9.34538 6.70325C9.78835 6.03137 9.78835 5.21497 9.34146 4.53918C9.12193 4.20715 6.4406 1.53137 6.10347 1.31653C5.75458 1.08606 5.42921 0.996216 4.98625 1.00012C4.79024 1.00012 4.55896 1.02356 4.47271 1.0509ZM5.39001 2.13684C5.66442 2.26184 8.36536 4.96106 8.5104 5.25012C8.65544 5.53918 8.63976 5.82434 8.45944 6.10168C8.3928 6.20715 7.93807 6.68372 7.45198 7.16418C6.93453 7.6759 6.53076 8.10559 6.48372 8.19543C6.34651 8.46887 6.39356 8.7345 6.69932 9.34778C7.22069 10.3947 7.98511 11.4142 9.13761 12.5939C10.298 13.7853 11.4465 14.6603 12.6579 15.2892C13.1283 15.5314 13.2223 15.5665 13.4066 15.5665C13.5203 15.5665 13.6849 15.5392 13.7672 15.504C13.8692 15.4611 14.2298 15.1368 14.8609 14.5118C15.449 13.9298 15.8684 13.547 15.9782 13.4923C16.2251 13.3634 16.5348 13.3712 16.7661 13.5079C16.8602 13.5626 17.5776 14.2462 18.3577 15.0275C19.8786 16.547 19.9335 16.6173 19.9374 16.9923C19.9374 17.3595 19.8238 17.5197 18.9104 18.4493C17.7383 19.6368 17.6952 19.672 17.1934 19.84C16.6603 20.0157 16.1114 20.0118 15.1785 19.8204C13.5712 19.4923 11.18 18.3009 9.31402 16.8947C6.7542 14.965 4.51975 12.3126 3.21829 9.64856C2.01482 7.18762 1.73649 5.37122 2.40291 4.31653C2.59891 4.00793 4.38647 2.24231 4.60992 2.13684C4.84512 2.02356 5.15481 2.02356 5.39001 2.13684Z" stroke="white" stroke-width="0.4" mask="url(#path-1-outside-1_252_189)"/>
</svg>
