<svg width="27" height="27" viewBox="0 0 27 27" fill="none" xmlns="http://www.w3.org/2000/svg">
<mask id="path-1-outside-1_306_324" maskUnits="userSpaceOnUse" x="0" y="0" width="27" height="27" fill="black">
<rect fill="white" width="27" height="27"/>
<path d="M5.34171 1.06364C5.00844 1.17108 4.62126 1.38597 4.28799 1.65457C3.77828 2.06969 1.97961 3.91574 1.70025 4.31133C1.42089 4.70691 1.19054 5.25877 1.07291 5.79598C0.974893 6.25994 0.974893 7.43692 1.07782 8.06204C1.40128 10.079 2.47461 12.5697 4.01844 14.9139C6.16019 18.1567 8.93907 20.9404 12.0169 22.9135C15.1683 24.9353 17.9913 26 20.1967 26C21.324 26 22.0591 25.7753 22.8188 25.204C23.2305 24.8963 25.382 22.6791 25.6075 22.3323C25.877 21.9172 26.0045 21.4825 26.0045 20.9893C26.0094 20.5156 25.9457 20.2714 25.7153 19.8221C25.5634 19.5193 25.3232 19.2604 23.701 17.6293C21.4563 15.3779 21.2554 15.2265 20.3634 15.1728C19.8929 15.1386 19.5204 15.2167 19.0793 15.4414C18.7705 15.5928 18.5745 15.7637 17.6041 16.716L16.4818 17.8197L16.0603 17.6C15.0066 17.053 13.6833 16.0567 12.5511 14.9628C11.0857 13.5416 9.96339 12.1204 9.37036 10.9386L9.15472 10.5039L10.1937 9.47344C10.7868 8.8825 11.3161 8.31111 11.4337 8.13041C11.9875 7.29041 11.9875 6.2697 11.4288 5.42482C11.1543 5.0097 7.80203 1.66434 7.38054 1.39574C6.94435 1.1076 6.53757 0.99527 5.98375 1.00015C5.7387 1.00015 5.44954 1.02946 5.34171 1.06364ZM6.48856 2.42132C6.83163 2.5776 10.2084 5.95226 10.3898 6.31366C10.5711 6.67505 10.5515 7.03157 10.3261 7.37831C10.2427 7.51017 9.67423 8.10599 9.0665 8.70669C8.41956 9.34646 7.91476 9.88367 7.85594 9.996C7.68441 10.3379 7.74322 10.67 8.1255 11.4367C8.77734 12.7455 9.73304 14.0202 11.1739 15.4951C12.6246 16.9846 14.0607 18.0786 15.5751 18.8649C16.1632 19.1677 16.2808 19.2116 16.5112 19.2116C16.6533 19.2116 16.8591 19.1774 16.9621 19.1335C17.0895 19.0797 17.5404 18.6744 18.3295 17.893C19.0646 17.1653 19.589 16.6867 19.7262 16.6183C20.035 16.4572 20.4222 16.4669 20.7114 16.6379C20.829 16.7062 21.7259 17.5609 22.7012 18.5377C24.6028 20.4374 24.6714 20.5253 24.6763 20.9942C24.6763 21.4532 24.5342 21.6535 23.3922 22.8158C21.9268 24.3005 21.8729 24.3444 21.2456 24.5544C20.579 24.7742 19.8929 24.7693 18.7264 24.53C16.717 24.1198 13.7274 22.6302 11.3945 20.8721C8.19412 18.4595 5.40053 15.1435 3.77338 11.8127C2.26877 8.73599 1.92079 6.46505 2.75397 5.14645C2.99902 4.76063 5.23389 2.55318 5.51325 2.42132C5.80731 2.27969 6.19449 2.27969 6.48856 2.42132Z"/>
</mask>
<path d="M5.34171 1.06364C5.00844 1.17108 4.62126 1.38597 4.28799 1.65457C3.77828 2.06969 1.97961 3.91574 1.70025 4.31133C1.42089 4.70691 1.19054 5.25877 1.07291 5.79598C0.974893 6.25994 0.974893 7.43692 1.07782 8.06204C1.40128 10.079 2.47461 12.5697 4.01844 14.9139C6.16019 18.1567 8.93907 20.9404 12.0169 22.9135C15.1683 24.9353 17.9913 26 20.1967 26C21.324 26 22.0591 25.7753 22.8188 25.204C23.2305 24.8963 25.382 22.6791 25.6075 22.3323C25.877 21.9172 26.0045 21.4825 26.0045 20.9893C26.0094 20.5156 25.9457 20.2714 25.7153 19.8221C25.5634 19.5193 25.3232 19.2604 23.701 17.6293C21.4563 15.3779 21.2554 15.2265 20.3634 15.1728C19.8929 15.1386 19.5204 15.2167 19.0793 15.4414C18.7705 15.5928 18.5745 15.7637 17.6041 16.716L16.4818 17.8197L16.0603 17.6C15.0066 17.053 13.6833 16.0567 12.5511 14.9628C11.0857 13.5416 9.96339 12.1204 9.37036 10.9386L9.15472 10.5039L10.1937 9.47344C10.7868 8.8825 11.3161 8.31111 11.4337 8.13041C11.9875 7.29041 11.9875 6.2697 11.4288 5.42482C11.1543 5.0097 7.80203 1.66434 7.38054 1.39574C6.94435 1.1076 6.53757 0.99527 5.98375 1.00015C5.7387 1.00015 5.44954 1.02946 5.34171 1.06364ZM6.48856 2.42132C6.83163 2.5776 10.2084 5.95226 10.3898 6.31366C10.5711 6.67505 10.5515 7.03157 10.3261 7.37831C10.2427 7.51017 9.67423 8.10599 9.0665 8.70669C8.41956 9.34646 7.91476 9.88367 7.85594 9.996C7.68441 10.3379 7.74322 10.67 8.1255 11.4367C8.77734 12.7455 9.73304 14.0202 11.1739 15.4951C12.6246 16.9846 14.0607 18.0786 15.5751 18.8649C16.1632 19.1677 16.2808 19.2116 16.5112 19.2116C16.6533 19.2116 16.8591 19.1774 16.9621 19.1335C17.0895 19.0797 17.5404 18.6744 18.3295 17.893C19.0646 17.1653 19.589 16.6867 19.7262 16.6183C20.035 16.4572 20.4222 16.4669 20.7114 16.6379C20.829 16.7062 21.7259 17.5609 22.7012 18.5377C24.6028 20.4374 24.6714 20.5253 24.6763 20.9942C24.6763 21.4532 24.5342 21.6535 23.3922 22.8158C21.9268 24.3005 21.8729 24.3444 21.2456 24.5544C20.579 24.7742 19.8929 24.7693 18.7264 24.53C16.717 24.1198 13.7274 22.6302 11.3945 20.8721C8.19412 18.4595 5.40053 15.1435 3.77338 11.8127C2.26877 8.73599 1.92079 6.46505 2.75397 5.14645C2.99902 4.76063 5.23389 2.55318 5.51325 2.42132C5.80731 2.27969 6.19449 2.27969 6.48856 2.42132Z" fill="white"/>
<path d="M5.34171 1.06364C5.00844 1.17108 4.62126 1.38597 4.28799 1.65457C3.77828 2.06969 1.97961 3.91574 1.70025 4.31133C1.42089 4.70691 1.19054 5.25877 1.07291 5.79598C0.974893 6.25994 0.974893 7.43692 1.07782 8.06204C1.40128 10.079 2.47461 12.5697 4.01844 14.9139C6.16019 18.1567 8.93907 20.9404 12.0169 22.9135C15.1683 24.9353 17.9913 26 20.1967 26C21.324 26 22.0591 25.7753 22.8188 25.204C23.2305 24.8963 25.382 22.6791 25.6075 22.3323C25.877 21.9172 26.0045 21.4825 26.0045 20.9893C26.0094 20.5156 25.9457 20.2714 25.7153 19.8221C25.5634 19.5193 25.3232 19.2604 23.701 17.6293C21.4563 15.3779 21.2554 15.2265 20.3634 15.1728C19.8929 15.1386 19.5204 15.2167 19.0793 15.4414C18.7705 15.5928 18.5745 15.7637 17.6041 16.716L16.4818 17.8197L16.0603 17.6C15.0066 17.053 13.6833 16.0567 12.5511 14.9628C11.0857 13.5416 9.96339 12.1204 9.37036 10.9386L9.15472 10.5039L10.1937 9.47344C10.7868 8.8825 11.3161 8.31111 11.4337 8.13041C11.9875 7.29041 11.9875 6.2697 11.4288 5.42482C11.1543 5.0097 7.80203 1.66434 7.38054 1.39574C6.94435 1.1076 6.53757 0.99527 5.98375 1.00015C5.7387 1.00015 5.44954 1.02946 5.34171 1.06364ZM6.48856 2.42132C6.83163 2.5776 10.2084 5.95226 10.3898 6.31366C10.5711 6.67505 10.5515 7.03157 10.3261 7.37831C10.2427 7.51017 9.67423 8.10599 9.0665 8.70669C8.41956 9.34646 7.91476 9.88367 7.85594 9.996C7.68441 10.3379 7.74322 10.67 8.1255 11.4367C8.77734 12.7455 9.73304 14.0202 11.1739 15.4951C12.6246 16.9846 14.0607 18.0786 15.5751 18.8649C16.1632 19.1677 16.2808 19.2116 16.5112 19.2116C16.6533 19.2116 16.8591 19.1774 16.9621 19.1335C17.0895 19.0797 17.5404 18.6744 18.3295 17.893C19.0646 17.1653 19.589 16.6867 19.7262 16.6183C20.035 16.4572 20.4222 16.4669 20.7114 16.6379C20.829 16.7062 21.7259 17.5609 22.7012 18.5377C24.6028 20.4374 24.6714 20.5253 24.6763 20.9942C24.6763 21.4532 24.5342 21.6535 23.3922 22.8158C21.9268 24.3005 21.8729 24.3444 21.2456 24.5544C20.579 24.7742 19.8929 24.7693 18.7264 24.53C16.717 24.1198 13.7274 22.6302 11.3945 20.8721C8.19412 18.4595 5.40053 15.1435 3.77338 11.8127C2.26877 8.73599 1.92079 6.46505 2.75397 5.14645C2.99902 4.76063 5.23389 2.55318 5.51325 2.42132C5.80731 2.27969 6.19449 2.27969 6.48856 2.42132Z" stroke="white" stroke-width="0.6" mask="url(#path-1-outside-1_306_324)"/>
</svg>
